<?xml version="1.0" encoding="UTF-8" standalone="no"?>
<!-- Created with Inkscape (http://www.inkscape.org/) -->

<svg
   version="1.1"
   id="svg1"
   width="1024"
   height="1024"
   viewBox="0 0 1024 1024"
   sodipodi:docname="ctxvault_logo_black.svg"
   inkscape:version="1.4.3 (0d15f75, 2025-12-25)"
   xmlns:inkscape="http://www.inkscape.org/namespaces/inkscape"
   xmlns:sodipodi="http://sodipodi.sourceforge.net/DTD/sodipodi-0.dtd"
   xmlns="http://www.w3.org/2000/svg"
   xmlns:svg="http://www.w3.org/2000/svg">
  <defs
     id="defs1" />
  <sodipodi:namedview
     id="namedview1"
     pagecolor="#ffffff"
     bordercolor="#000000"
     borderopacity="0.25"
     inkscape:showpageshadow="2"
     inkscape:pageopacity="0.0"
     inkscape:pagecheckerboard="0"
     inkscape:deskcolor="#d1d1d1"
     inkscape:zoom="0.77636719"
     inkscape:cx="480.44277"
     inkscape:cy="402.51572"
     inkscape:window-width="1920"
     inkscape:window-height="991"
     inkscape:window-x="-9"
     inkscape:window-y="1341"
     inkscape:window-maximized="1"
     inkscape:current-layer="g1" />
  <g
     inkscape:groupmode="layer"
     inkscape:label="Image"
     id="g1">
    <g
       id="g2">
      <path
         style="fill-opacity:1.0;fill:#b9b9b9"
         d="m 721.3605,475 c 0,-5.225 0.16854,-7.3625 0.37454,-4.75 0.206,2.6125 0.206,6.8875 0,9.5 -0.206,2.6125 -0.37454,0.475 -0.37454,-4.75 z m 8,-52 c 0,-5.225 0.16854,-7.3625 0.37454,-4.75 0.206,2.6125 0.206,6.8875 0,9.5 -0.206,2.6125 -0.37454,0.475 -0.37454,-4.75 z m -0.28155,-11.58333 c 0.048,-1.16495 0.28494,-1.4019 0.60416,-0.60417 0.28887,0.72187 0.25335,1.58438 -0.0789,1.91667 -0.33229,0.33229 -0.56864,-0.25834 -0.52522,-1.3125 z M 721.87244,349.25 c -1.24387,-1.58606 -1.2085,-1.62143 0.37756,-0.37756 1.66575,1.30637 2.19548,2.12756 1.37244,2.12756 -0.20765,0 -0.99515,-0.7875 -1.75,-1.75 z"
         id="path8" />
      <path
         style="fill-opacity:1.0;fill:#a3a3a3"
         d="m 721.27236,462 c 0,-2.475 0.19502,-3.4875 0.43337,-2.25 0.23836,1.2375 0.23836,3.2625 0,4.5 -0.23835,1.2375 -0.43337,0.225 -0.43337,-2.25 z m -0.11447,-8 c 0,-1.375 0.22698,-1.9375 0.50439,-1.25 0.27741,0.6875 0.27741,1.8125 0,2.5 -0.27741,0.6875 -0.50439,0.125 -0.50439,-1.25 z m 8.17832,-15 c 0,-4.125 0.17651,-5.8125 0.39226,-3.75 0.21574,2.0625 0.21574,5.4375 0,7.5 -0.21575,2.0625 -0.39226,0.375 -0.39226,-3.75 z"
         id="path7" />
      <path
         style="fill-opacity:1.0;fill:#8c8c8c"
         d="m 538.07895,596.41667 c 0.048,-1.16495 0.28494,-1.4019 0.60416,-0.60417 0.28887,0.72187 0.25335,1.58438 -0.0789,1.91667 -0.33229,0.33229 -0.56864,-0.25834 -0.52522,-1.3125 z M 729.232,452 c 0,-1.925 0.2058,-2.7125 0.45733,-1.75 0.25152,0.9625 0.25152,2.5375 0,3.5 -0.25153,0.9625 -0.45733,0.175 -0.45733,-1.75 z m -8.03705,-2.5 c 0.0204,-1.65 0.2445,-2.20394 0.49804,-1.23097 0.25354,0.97297 0.23687,2.32297 -0.0371,3 -0.27393,0.67703 -0.48137,-0.11903 -0.46099,-1.76903 z"
         id="path6" />
      <path
         style="fill-opacity:1.0;fill:#767676"
         d="m 515.07895,706.41667 c 0.048,-1.16495 0.28494,-1.4019 0.60416,-0.60417 0.28887,0.72187 0.25335,1.58438 -0.0789,1.91667 -0.33229,0.33229 -0.56864,-0.25834 -0.52522,-1.3125 z m 0.116,-6.91667 c 0.0204,-1.65 0.2445,-2.20394 0.49804,-1.23097 0.25354,0.97297 0.23687,2.32297 -0.0371,3 -0.27393,0.67703 -0.48137,-0.11903 -0.46099,-1.76903 z m 0.0774,-7.5 c 0,-2.475 0.19502,-3.4875 0.43337,-2.25 0.23836,1.2375 0.23836,3.2625 0,4.5 -0.23835,1.2375 -0.43337,0.225 -0.43337,-2.25 z m -0.0774,-10.5 c 0.0204,-1.65 0.2445,-2.20394 0.49804,-1.23097 0.25354,0.97297 0.23687,2.32297 -0.0371,3 -0.27393,0.67703 -0.48137,-0.11903 -0.46099,-1.76903 z m 0.22363,-22.5 c 0,-10.725 0.14711,-15.1125 0.32692,-9.75 0.17981,5.3625 0.17981,14.1375 0,19.5 -0.17981,5.3625 -0.32692,0.975 -0.32692,-9.75 z m 213.8336,-191.5 c 0.0111,-2.2 0.21589,-2.98225 0.45508,-1.73834 0.23919,1.24391 0.23011,3.04391 -0.0202,4 -0.25029,0.95609 -0.446,-0.0617 -0.4349,-2.26166 z m 0.0202,-8.5 c 0,-2.475 0.19502,-3.4875 0.43337,-2.25 0.23836,1.2375 0.23836,3.2625 0,4.5 -0.23835,1.2375 -0.43337,0.225 -0.43337,-2.25 z M 408.07895,445.41667 c 0.048,-1.16495 0.28494,-1.4019 0.60416,-0.60417 0.28887,0.72187 0.25335,1.58438 -0.0789,1.91667 -0.33229,0.33229 -0.56864,-0.25834 -0.52522,-1.3125 z M 721.15789,442 c 0,-1.375 0.22698,-1.9375 0.50439,-1.25 0.27741,0.6875 0.27741,1.8125 0,2.5 -0.27741,0.6875 -0.50439,0.125 -0.50439,-1.25 z m 0.12812,-10.5 c 0.008,-2.75 0.20172,-3.75631 0.43157,-2.23625 0.22986,1.52006 0.22371,3.77006 -0.0136,5 -0.23736,1.22994 -0.42542,-0.0138 -0.41792,-2.76375 z m -84.41357,-37.25 c -1.24387,-1.58606 -1.2085,-1.62143 0.37756,-0.37756 1.66575,1.30637 2.19548,2.12756 1.37244,2.12756 -0.20765,0 -0.99515,-0.7875 -1.75,-1.75 z M 515.40918,312.5 c -0.001,-9.35 0.14916,-13.3096 0.33401,-8.7991 0.18486,4.51049 0.1858,12.16049 0.002,17 -0.1837,4.8395 -0.33495,1.1491 -0.3361,-8.2009 z m -0.009,-34 c 0.001,-8.25 0.15629,-11.49193 0.34419,-7.20429 0.1879,4.28763 0.18676,11.03763 -0.003,15 -0.1893,3.96236 -0.34304,0.45429 -0.34164,-7.79571 z m -0.11393,-27 c 0.008,-2.75 0.20172,-3.75631 0.43157,-2.23625 0.22986,1.52006 0.22371,3.77006 -0.0136,5 -0.23736,1.22994 -0.42542,-0.0137 -0.41792,-2.76375 z"
         id="path5" />
      <path
         style="fill-opacity:1.0;fill:#606060"
         d="m 515.07895,703.41667 c 0.048,-1.16495 0.28494,-1.4019 0.60416,-0.60417 0.28887,0.72187 0.25335,1.58438 -0.0789,1.91667 -0.33229,0.33229 -0.56864,-0.25834 -0.52522,-1.3125 z M 515.15789,686 c 0,-1.375 0.22698,-1.9375 0.50439,-1.25 0.27741,0.6875 0.27741,1.8125 0,2.5 -0.27741,0.6875 -0.50439,0.125 -0.50439,-1.25 z m 0,-48 c 0,-1.375 0.22698,-1.9375 0.50439,-1.25 0.27741,0.6875 0.27741,1.8125 0,2.5 -0.27741,0.6875 -0.50439,0.125 -0.50439,-1.25 z m 0,-5 c 0,-1.375 0.22698,-1.9375 0.50439,-1.25 0.27741,0.6875 0.27741,1.8125 0,2.5 -0.27741,0.6875 -0.50439,0.125 -0.50439,-1.25 z m 0.0943,-6.5 c 0.0111,-2.2 0.21589,-2.98225 0.45508,-1.73834 0.23919,1.24391 0.23011,3.04391 -0.0202,4 -0.25029,0.95609 -0.446,-0.0617 -0.4349,-2.26166 z M 302.07895,571.41667 c 0.048,-1.16495 0.28494,-1.4019 0.60416,-0.60417 0.28887,0.72187 0.25335,1.58438 -0.0789,1.91667 -0.33229,0.33229 -0.56864,-0.25834 -0.52522,-1.3125 z M 302.27236,564 c 0,-2.475 0.19502,-3.4875 0.43337,-2.25 0.23836,1.2375 0.23836,3.2625 0,4.5 -0.23835,1.2375 -0.43337,0.225 -0.43337,-2.25 z m 0.17903,-40.5 c -3.2e-4,-19.8 0.13325,-28.04173 0.29682,-18.31497 0.16358,9.72677 0.16384,25.92677 5.9e-4,36 C 302.58555,551.25827 302.45172,543.3 302.45139,523.5 Z M 617.8125,510.31689 c 0.72187,-0.28887 1.58438,-0.25335 1.91667,0.0789 0.33229,0.33229 -0.25834,0.56864 -1.3125,0.52522 -1.16495,-0.048 -1.4019,-0.28494 -0.60417,-0.60416 z M 408.32814,503.5 c 0.004,-3.85 0.18518,-5.30246 0.40166,-3.2277 0.21647,2.07477 0.21284,5.22477 -0.008,7 -0.22091,1.77524 -0.39803,0.0777 -0.39359,-3.7723 z m 0.0994,-30.5 c 0,-12.375 0.14355,-17.4375 0.319,-11.25 0.17544,6.1875 0.17544,16.3125 0,22.5 -0.17545,6.1875 -0.319,1.125 -0.319,-11.25 z m -106.26962,11 c 0,-1.375 0.22698,-1.9375 0.50439,-1.25 0.27741,0.6875 0.27741,1.8125 0,2.5 -0.27741,0.6875 -0.50439,0.125 -0.50439,-1.25 z m 427.17025,-6.5 c 0.004,-3.85 0.18518,-5.30246 0.40166,-3.2277 0.21647,2.07477 0.21284,5.22477 -0.008,7 -0.22091,1.77524 -0.39803,0.0777 -0.39359,-3.7723 z m -426.94638,-8 c 0.002,-6.6 0.16382,-9.16987 0.35965,-5.71081 0.19583,3.45905 0.19422,8.85905 -0.004,12 -0.19781,3.14094 -0.35803,0.31081 -0.35606,-6.28919 z M 721.29966,422 c 0,-3.025 0.18747,-4.2625 0.41659,-2.75 0.22913,1.5125 0.22913,3.9875 0,5.5 -0.22912,1.5125 -0.41659,0.275 -0.41659,-2.75 z M 515.15789,262 c 0,-1.375 0.22698,-1.9375 0.50439,-1.25 0.27741,0.6875 0.27741,1.8125 0,2.5 -0.27741,0.6875 -0.50439,0.125 -0.50439,-1.25 z m -0.0789,-4.58333 c 0.048,-1.16495 0.28494,-1.4019 0.60416,-0.60417 0.28887,0.72187 0.25335,1.58438 -0.0789,1.91667 -0.33229,0.33229 -0.56864,-0.25834 -0.52522,-1.3125 z"
         id="path4" />
      <path
         style="fill-opacity:1.0;fill:#494949"
         d="m 302.07895,582.41667 c 0.048,-1.16495 0.28494,-1.4019 0.60416,-0.60417 0.28887,0.72187 0.25335,1.58438 -0.0789,1.91667 -0.33229,0.33229 -0.56864,-0.25834 -0.52522,-1.3125 z M 302.25218,576.5 c 0.0111,-2.2 0.21589,-2.98225 0.45508,-1.73834 0.23919,1.24391 0.23011,3.04391 -0.0202,4 -0.25029,0.95609 -0.446,-0.0617 -0.4349,-2.26166 z m 427.11305,-83 c 0.003,-5.5 0.17053,-7.62242 0.37317,-4.71648 0.20265,2.90594 0.20052,7.40594 -0.005,10 C 729.52842,501.37758 729.36263,499 729.36523,493.5 Z M 302.29966,453 c 0,-3.025 0.18747,-4.2625 0.41659,-2.75 0.22913,1.5125 0.22913,3.9875 0,5.5 -0.22912,1.5125 -0.41659,0.275 -0.41659,-2.75 z m 0.13806,-32.5 c -5.4e-4,-14.85 0.13863,-21.0644 0.30926,-13.80979 0.17063,7.25462 0.17107,19.40462 9.7e-4,27 -0.17009,7.59539 -0.3097,1.65979 -0.31023,-13.19021 z M 721.27236,413 c 0,-2.475 0.19502,-3.4875 0.43337,-2.25 0.23836,1.2375 0.23836,3.2625 0,4.5 -0.23835,1.2375 -0.43337,0.225 -0.43337,-2.25 z m -0.11447,-7 c 0,-1.375 0.22698,-1.9375 0.50439,-1.25 0.27741,0.6875 0.27741,1.8125 0,2.5 -0.27741,0.6875 -0.50439,0.125 -0.50439,-1.25 z M 294.32814,373.5 c 0.004,-3.85 0.18518,-5.30246 0.40166,-3.2277 0.21647,2.07477 0.21284,5.22477 -0.008,7 -0.22091,1.77524 -0.39803,0.0777 -0.39359,-3.7723 z m 7.75081,3.91667 c 0.048,-1.16495 0.28494,-1.4019 0.60416,-0.60417 0.28887,0.72187 0.25335,1.58438 -0.0789,1.91667 -0.33229,0.33229 -0.56864,-0.25834 -0.52522,-1.3125 z"
         id="path3" />
      <path
         style="fill-opacity:1.0;fill:#333333"
         d="m 505.5,716.06493 c -1.65,-0.40169 -4.575,-1.54231 -6.5,-2.53471 -5.49338,-2.83201 -74.86769,-41.41089 -81,-45.04389 -3.025,-1.79212 -16.525,-9.33136 -30,-16.75388 -54.0272,-29.76012 -84.50367,-46.87829 -86.21101,-48.42341 -0.98844,-0.89453 -3.03283,-4.14251 -4.54308,-7.21773 L 294.5,590.5 v -114 -114 l 2.76061,-5.62135 c 3.14213,-6.39824 4.41147,-7.37683 23.23939,-17.91618 7.15,-4.00238 17.95,-10.07301 24,-13.4903 6.05,-3.41729 17.3,-9.71567 25,-13.99641 16.20213,-9.00741 103.14655,-57.94687 121.28358,-68.26836 12.97855,-7.38588 17.8387,-8.83647 25.67107,-7.66193 4.23009,0.63434 12.51623,5.03238 61.04535,32.4011 7.15,4.03235 36.4,20.37543 65,36.31795 28.6,15.94252 57.625,32.12265 64.5,35.95583 14.08038,7.85058 16.30327,9.60792 19.32743,15.27965 2.12006,3.97612 2.13763,4.6001 2.94311,104.5 0.98927,122.69483 0.86787,131.05457 -1.98229,136.5 -3.67229,7.01617 -0.0429,4.7892 -82.28825,50.49125 -14.575,8.09903 -47.875,26.63609 -74,41.19347 -26.125,14.55737 -49.02965,26.9961 -50.89922,27.64162 -3.71409,1.28237 -9.89819,1.38343 -14.60078,0.23859 z m 2.26051,-50.66541 -0.26051,-43.60048 -4.9281,-1.87048 c -2.71045,-1.02876 -6.65085,-3.5527 -8.75643,-5.60875 -6.21491,-6.06869 -9.49494,-17.77227 -6.89635,-24.60707 0.88317,-2.32292 0.18895,-2.82313 -17.75,-12.78953 -10.26802,-5.70463 -24.01511,-13.41186 -30.54909,-17.12716 l -11.87997,-6.75511 -3.00356,2.52733 c -5.96044,5.01538 -10.76701,6.81038 -18.2365,6.81038 -7.50361,0 -12.27441,-1.79362 -18.33479,-6.89309 l -3.10185,-2.61003 -12.8178,7.31223 C 364.19578,564.20949 346.86849,574.025 332.74047,582 c -14.12801,7.975 -25.69171,14.95 -25.6971,15.5 -0.005,0.55 4.59514,3.53936 10.22341,6.64303 20.80279,11.47155 127.9502,71.00088 149.23322,82.91153 25.49155,14.26587 39.68144,21.89902 40.76051,21.92625 0.41828,0.0105 0.64328,-19.60103 0.5,-43.58129 z M 530,702.64441 c 6.325,-3.49387 33.1,-18.40368 59.5,-33.13292 26.4,-14.72924 52.275,-29.13184 57.5,-32.00577 31.95624,-17.57703 67.71218,-37.83031 68.96429,-39.06353 2.05624,-2.02522 1.0709,-2.79573 -14.96429,-11.70168 -7.425,-4.12385 -19.35,-10.781 -26.5,-14.79367 C 647.52065,556.80569 640.63791,553 640.23391,553 c -0.22879,0 -2.27543,1.59162 -4.5481,3.53694 -5.09322,4.35961 -13.28869,6.9264 -19.4283,6.08488 -5.73466,-0.78603 -12.54922,-3.82262 -15.74075,-7.01415 l -2.52188,-2.52188 -4.74744,2.81751 c -2.61109,1.54963 -11.04744,6.32989 -18.74744,10.6228 -7.7,4.2929 -16.475,9.24098 -19.5,10.99572 -3.025,1.75475 -8.24754,4.67334 -11.60564,6.48578 l -6.10565,3.29533 0.47989,6.70705 c 0.55321,7.73185 -0.62416,12.11008 -4.81073,17.88948 -2.86723,3.9581 -9.52894,8.10923 -15.20787,9.47653 L 515,622.0381 v 42.81429 c 0,23.54785 0.3,43.11428 0.66667,43.48094 1.27316,1.27317 2.89524,0.62936 14.33333,-5.68892 z M 323.89876,578.85034 C 334.67944,572.71803 348,565.14276 353.5,562.01642 c 5.5,-3.12634 13.9751,-7.84093 18.83354,-10.47686 7.74164,-4.2002 8.7501,-5.05509 8.15845,-6.91608 -4.38196,-13.78312 2.22273,-27.59856 15.43775,-32.29212 L 401,510.53056 V 475 439.46944 l -4.75,-1.69886 C 389.85738,435.48424 384.99314,431.25599 381.98948,425.3746 379.92997,421.34191 379.5,419.07043 379.5,412.22287 v -8.27713 l -17,-9.55923 c -9.35,-5.25758 -23.525,-13.19396 -31.5,-17.63639 -7.975,-4.44243 -17.03386,-9.57857 -20.13081,-11.41364 C 307.77224,363.50142 304.78239,362 304.22507,362 c -1.64742,0 -1.85333,11.45249 -2.10473,117.06093 -0.21717,91.2268 0.0773,110.93907 1.65725,110.93907 0.28596,0 9.34048,-5.01735 20.12117,-11.14966 z m 397.91649,-102.8004 c -0.294,-73.21809 -0.79884,-112.43353 -1.45589,-113.09058 -0.67443,-0.67443 -8.72432,3.38489 -24.43259,12.32064 -12.88472,7.32955 -29.73294,16.84864 -37.44048,21.15353 l -14.0137,7.82709 0.0137,8.11969 c 0.012,7.09566 -0.35031,8.77657 -2.87262,13.32816 -7.71852,13.92834 -25.15308,17.29453 -38.24652,7.38448 l -4.95586,-3.75095 -30.38046,17.30394 c -16.70925,9.51716 -30.859,17.46345 -31.44388,17.65841 -0.72642,0.24214 -0.67102,1.21572 0.17481,3.07212 1.56407,3.43276 1.59467,11.70185 0.0622,16.81669 -1.54377,5.15266 -7.76215,12.1144 -13.15097,14.72309 -9.61969,4.65681 -23.27697,1.71971 -30.79743,-6.62321 -12.25026,-13.58999 -6.46618,-35.17312 11.02364,-41.13443 7.50738,-2.55885 16.16864,-1.02119 23.79415,4.22424 l 4.83998,3.32931 21.48332,-12.34482 c 11.81583,-6.78966 24.86295,-14.17908 28.99359,-16.42095 12.11323,-6.57433 12.47391,-6.94931 10.99487,-11.43085 -0.74661,-2.26224 -1.008,-5.84172 -0.64992,-8.89989 0.58119,-4.96354 0.50305,-5.17067 -2.6281,-6.96624 -1.77491,-1.01783 -15.26359,-8.57068 -29.97484,-16.78411 l -26.74773,-14.93352 -5.25227,3.91191 c -6.74234,5.02171 -11.57376,6.54095 -18.73591,5.89151 -6.36662,-0.5773 -10.34857,-2.33196 -15.44315,-6.80506 l -3.45379,-3.03247 -29.93622,16.80117 -29.93622,16.80116 0.48771,5.5 c 1.18524,13.36618 -6.83243,24.95374 -19.48469,28.16031 l -4.25,1.07712 0,35.79339 0,35.79338 4.02488,0.68 c 5.63388,0.95184 12.89571,6.14889 16.28237,11.65275 3.26642,5.30846 4.54856,14.08494 2.91949,19.9844 l -1.00553,3.64135 16.6394,9.35429 c 9.15166,5.14486 22.71439,12.8197 30.13939,17.0552 l 13.5,7.70091 3.5,-3.33636 c 5.81148,-5.53978 9.60373,-7.01744 18,-7.01371 8.49207,0.004 13.31333,1.95171 18.85203,7.61683 l 3.24621,3.3203 3.20088,-1.87505 c 9.09683,-5.32885 36.53271,-20.92617 45.99492,-26.14814 L 594.08807,547.5 593.36601,543 c -2.91088,-18.14099 8.07086,-31.96326 25.41611,-31.99023 10.40155,-0.0162 17.91896,4.35566 22.75925,13.2359 2.38646,4.37831 2.84185,6.33803 2.73139,11.75433 -0.0729,3.575 -0.2766,7.32224 -0.45266,8.32721 -0.25325,1.4456 4.06557,4.28327 20.6799,13.58763 44.01359,24.64852 54.02912,30.33453 54.95,31.19622 0.55532,0.51962 1.33748,0.50146 1.88266,-0.0437 0.57115,-0.57115 0.75821,-44.37696 0.48259,-113.0174 z M 455,382.98761 c 12.925,-7.32245 25.62166,-14.46249 28.2148,-15.86675 4.21238,-2.28113 4.63862,-2.82321 4,-5.08703 -0.39314,-1.39361 -0.6907,-5.01052 -0.66123,-8.03759 0.10067,-10.3447 8.4596,-20.78248 18.09018,-22.58918 L 508,330.77742 V 286.88871 C 508,262.74992 507.63988,243 507.19973,243 c -0.44015,0 -15.62765,8.38071 -33.75,18.62379 C 455.32738,271.86688 432.625,284.63157 423,289.98978 c -36.70992,20.43629 -104.97123,58.69312 -111.74368,62.62638 -1.78402,1.03611 -3.24652,2.11105 -3.25,2.38875 -0.003,0.2777 8.88118,5.45149 19.74368,11.49732 10.8625,6.04583 27.80334,15.59493 37.64632,21.22022 l 17.89632,10.2278 3.38148,-2.96899 c 6.23483,-5.47425 11.15424,-7.41966 18.82588,-7.4448 5.92055,-0.0194 7.83218,0.43688 12.39652,2.95897 2.96809,1.64006 6.31338,4.22203 7.43397,5.73772 1.8281,2.47263 2.24974,2.6177 4.10348,1.4119 C 430.57029,396.90591 442.075,390.31006 455,382.98761 Z M 601.65202,394.0751 C 606.58811,389.73018 613.34705,387 619.16741,387 c 5.55957,0 13.64899,3.41482 17.88265,7.54888 l 3.69172,3.60487 10.87911,-6.20639 c 5.98351,-3.41351 12.90411,-7.33959 15.37911,-8.72461 24.07506,-13.47257 32.71488,-18.27874 40,-22.25127 4.675,-2.54925 8.5,-5.22276 8.5,-5.94115 0,-1.56669 -1.73709,-2.56532 -89.5,-51.45266 -14.575,-8.11883 -30.325,-16.91205 -35,-19.54048 -52.36227,-29.43966 -66.31367,-37.21913 -69.30851,-38.64727 -7.04379,-3.35895 -6.74282,-5.33168 -6.45225,42.29201 l 0.26076,42.73644 3,0.62352 c 4.34092,0.90222 8.83547,3.44743 12.42308,7.03503 5.46763,5.46764 6.58293,8.5373 6.51915,17.94291 l -0.0578,8.51984 23.05776,12.77225 c 12.68177,7.02473 25.98277,14.51552 29.55777,16.6462 3.575,2.13067 6.65595,3.91173 6.84655,3.95792 0.1906,0.0462 2.35306,-1.68224 4.80547,-3.84094 z"
         id="path2" />
    </g>
  </g>
</svg>
