<?xml version="1.0" encoding="UTF-8" standalone="no"?>
<!-- Created with Inkscape (http://www.inkscape.org/) -->

<svg
   version="1.1"
   id="svg1"
   width="1024"
   height="1024"
   viewBox="0 0 1024 1024"
   sodipodi:docname="ctxvault_logo_white.svg"
   inkscape:version="1.4.3 (0d15f75, 2025-12-25)"
   xmlns:inkscape="http://www.inkscape.org/namespaces/inkscape"
   xmlns:sodipodi="http://sodipodi.sourceforge.net/DTD/sodipodi-0.dtd"
   xmlns="http://www.w3.org/2000/svg"
   xmlns:svg="http://www.w3.org/2000/svg">
  <defs
     id="defs1" />
  <sodipodi:namedview
     id="namedview1"
     pagecolor="#ffffff"
     bordercolor="#000000"
     borderopacity="0.25"
     inkscape:showpageshadow="2"
     inkscape:pageopacity="0.0"
     inkscape:pagecheckerboard="0"
     inkscape:deskcolor="#d1d1d1"
     inkscape:zoom="0.77636719"
     inkscape:cx="511.35597"
     inkscape:cy="408.95597"
     inkscape:window-width="1920"
     inkscape:window-height="991"
     inkscape:window-x="-9"
     inkscape:window-y="1341"
     inkscape:window-maximized="1"
     inkscape:current-layer="g1" />
  <g
     inkscape:groupmode="layer"
     inkscape:label="Image"
     id="g1">
    <g
       id="g2">
      <path
         style="fill-opacity:1.0;fill:#b9b9b9"
         d="M 511,752.96862 C 511,752.43588 511.675,752 512.5,752 c 0.825,0 1.5,0.17686 1.5,0.39301 0,0.21616 -0.675,0.65203 -1.5,0.96862 -0.825,0.31658 -1.5,0.13972 -1.5,-0.39301 z"
         id="path8" />
      <path
         style="fill-opacity:1.0;fill:#a3a3a3"
         d="m 531.87244,602.25 c -1.24387,-1.58606 -1.2085,-1.62143 0.37756,-0.37756 1.66575,1.30637 2.19548,2.12756 1.37244,2.12756 -0.20765,0 -0.99515,-0.7875 -1.75,-1.75 z m 61.58644,-35.31653 c -0.36253,-0.58659 -0.44468,-1.281 -0.18255,-1.54313 0.26212,-0.26213 0.74306,0.21781 1.06875,1.06653 0.67618,1.76211 0.0998,2.07206 -0.8862,0.4766 z M 370.5,565 c -0.33992,-0.55 -0.14148,-1 0.44098,-1 0.58246,0 1.05902,0.45 1.05902,1 0,0.55 -0.19844,1 -0.44098,1 -0.24254,0 -0.7191,-0.45 -1.05902,-1 z M 593,560.05902 c 0,-0.51754 0.44485,-1.21592 0.98855,-1.55194 0.56686,-0.35034 0.7345,0.0511 0.39301,0.94098 C 593.71677,561.18048 593,561.49745 593,560.05902 Z m 8,-16.43658 c 0,-0.20765 0.7875,-0.99515 1.75,-1.75 1.58606,-1.24387 1.62143,-1.2085 0.37756,0.37756 C 601.82119,543.91575 601,544.44548 601,543.62244 Z M 302.44113,371.44483 c -1.86402,-1.49339 -1.85176,-1.51185 0.30887,-0.46481 1.2375,0.59969 2.25,1.29951 2.25,1.55516 0,0.76522 -0.51861,0.54424 -2.55887,-1.09035 z M 517.19495,309.5 c 0.0204,-1.65 0.2445,-2.20394 0.49804,-1.23097 0.25354,0.97297 0.23687,2.32297 -0.0371,3 -0.27393,0.67703 -0.48137,-0.11903 -0.46099,-1.76903 z m 0.0371,-6.5 c 0,-1.925 0.2058,-2.7125 0.45733,-1.75 0.25152,0.9625 0.25152,2.5375 0,3.5 -0.25153,0.9625 -0.45733,0.175 -0.45733,-1.75 z m 0.0404,-11 c 0,-2.475 0.19502,-3.4875 0.43337,-2.25 0.23836,1.2375 0.23836,3.2625 0,4.5 -0.23835,1.2375 -0.43337,0.225 -0.43337,-2.25 z m -0.0202,-8.5 c 0.0111,-2.2 0.21589,-2.98225 0.45508,-1.73834 0.23919,1.24391 0.23011,3.04391 -0.0202,4 -0.25029,0.95609 -0.446,-0.0617 -0.4349,-2.26166 z m 0.084,-12.5 c 0,-4.125 0.17651,-5.8125 0.39226,-3.75 0.21574,2.0625 0.21574,5.4375 0,7.5 -0.21575,2.0625 -0.39226,0.375 -0.39226,-3.75 z"
         id="path7" />
      <path
         style="fill-opacity:1.0;fill:#8c8c8c"
         d="m 429.15789,430 c 0,-1.375 0.22698,-1.9375 0.50439,-1.25 0.27741,0.6875 0.27741,1.8125 0,2.5 -0.27741,0.6875 -0.50439,0.125 -0.50439,-1.25 z m 163.92106,0.41667 c 0.048,-1.16495 0.28494,-1.4019 0.60416,-0.60417 0.28887,0.72187 0.25335,1.58438 -0.0789,1.91667 -0.33229,0.33229 -0.56864,-0.25834 -0.52522,-1.3125 z M 515.5,400 c -0.33992,-0.55 -0.14148,-1 0.44098,-1 0.58246,0 1.05902,0.45 1.05902,1 0,0.55 -0.19844,1 -0.44098,1 -0.24254,0 -0.7191,-0.45 -1.05902,-1 z m 1.84281,-66.5 c 0.004,-4.4 0.17944,-6.07561 0.39069,-3.72357 0.21124,2.35204 0.20827,5.95204 -0.007,8 -0.21487,2.04796 -0.38771,0.12357 -0.38408,-4.27643 z M 517.15789,323 c 0,-1.375 0.22698,-1.9375 0.50439,-1.25 0.27741,0.6875 0.27741,1.8125 0,2.5 -0.27741,0.6875 -0.50439,0.125 -0.50439,-1.25 z m 0.11447,-7 c 0,-2.475 0.19502,-3.4875 0.43337,-2.25 0.23836,1.2375 0.23836,3.2625 0,4.5 -0.23835,1.2375 -0.43337,0.225 -0.43337,-2.25 z"
         id="path6" />
      <path
         style="fill-opacity:1.0;fill:#767676"
         d="m 517.19495,725.5 c 0.0204,-1.65 0.2445,-2.20394 0.49804,-1.23097 0.25354,0.97297 0.23687,2.32297 -0.0371,3 -0.27393,0.67703 -0.48137,-0.11903 -0.46099,-1.76903 z M 517.232,715 c 0,-1.925 0.2058,-2.7125 0.45733,-1.75 0.25152,0.9625 0.25152,2.5375 0,3.5 -0.25153,0.9625 -0.45733,0.175 -0.45733,-1.75 z m 0.0202,-44.5 c 0.0111,-2.2 0.21589,-2.98225 0.45508,-1.73834 0.23919,1.24391 0.23011,3.04391 -0.0202,4 -0.25029,0.95609 -0.446,-0.0617 -0.4349,-2.26166 z M 508.75,594.33772 c 0.6875,-0.27741 1.8125,-0.27741 2.5,0 0.6875,0.27741 0.125,0.50439 -1.25,0.50439 -1.375,0 -1.9375,-0.22698 -1.25,-0.50439 z M 394.44052,501 c 0,-15.675 0.13824,-22.0875 0.3072,-14.25 0.16896,7.8375 0.16896,20.6625 0,28.5 -0.16896,7.8375 -0.3072,1.425 -0.3072,-14.25 z m 86.63843,-3.58333 c 0.048,-1.16495 0.28494,-1.4019 0.60416,-0.60417 0.28887,0.72187 0.25335,1.58438 -0.0789,1.91667 -0.33229,0.33229 -0.56864,-0.25834 -0.52522,-1.3125 z M 394.15789,470 c 0,-1.375 0.22698,-1.9375 0.50439,-1.25 0.27741,0.6875 0.27741,1.8125 0,2.5 -0.27741,0.6875 -0.50439,0.125 -0.50439,-1.25 z m 0.0371,-5.5 c 0.0204,-1.65 0.2445,-2.20394 0.49804,-1.23097 0.25354,0.97297 0.23687,2.32297 -0.0371,3 -0.27393,0.67703 -0.48137,-0.11903 -0.46099,-1.76903 z M 600.5,452 c 0.33992,-0.55 0.81648,-1 1.05902,-1 0.24254,0 0.44098,0.45 0.44098,1 0,0.55 -0.47656,1 -1.05902,1 -0.58246,0 -0.7809,-0.45 -0.44098,-1 z M 429.07895,433.41667 c 0.048,-1.16495 0.28494,-1.4019 0.60416,-0.60417 0.28887,0.72187 0.25335,1.58438 -0.0789,1.91667 -0.33229,0.33229 -0.56864,-0.25834 -0.52522,-1.3125 z m 164,0 c 0.048,-1.16495 0.28494,-1.4019 0.60416,-0.60417 0.28887,0.72187 0.25335,1.58438 -0.0789,1.91667 -0.33229,0.33229 -0.56864,-0.25834 -0.52522,-1.3125 z M 508.8125,400.31689 c 0.72187,-0.28887 1.58438,-0.25335 1.91667,0.0789 0.33229,0.33229 -0.25834,0.56864 -1.3125,0.52522 -1.16495,-0.048 -1.4019,-0.28494 -0.60417,-0.60416 z M 517.15789,262 c 0,-1.375 0.22698,-1.9375 0.50439,-1.25 0.27741,0.6875 0.27741,1.8125 0,2.5 -0.27741,0.6875 -0.50439,0.125 -0.50439,-1.25 z"
         id="path5" />
      <path
         style="fill-opacity:1.0;fill:#606060"
         d="m 517.15789,734 c 0,-1.375 0.22698,-1.9375 0.50439,-1.25 0.27741,0.6875 0.27741,1.8125 0,2.5 -0.27741,0.6875 -0.50439,0.125 -0.50439,-1.25 z m 0.21207,-32 c 0,-5.775 0.16528,-8.1375 0.36728,-5.25 0.202,2.8875 0.202,7.6125 0,10.5 -0.202,2.8875 -0.36728,0.525 -0.36728,-5.25 z m -0.0337,-21 c 0,-4.125 0.17651,-5.8125 0.39226,-3.75 0.21574,2.0625 0.21574,5.4375 0,7.5 -0.21575,2.0625 -0.39226,0.375 -0.39226,-3.75 z m -0.0263,-22.5 c 0.006,-3.3 0.1923,-4.52944 0.41486,-2.73209 0.22256,1.79735 0.21797,4.49735 -0.0102,6 -0.22818,1.50265 -0.41027,0.0321 -0.40466,-3.26791 z m 188.42346,-22.62409 c 0.67834,-0.68342 1.48524,-0.99067 1.79313,-0.68278 0.30789,0.30789 -0.24711,0.86705 -1.23333,1.24258 -1.4252,0.54268 -1.54006,0.42782 -0.5598,-0.5598 z M 282.25218,612.5 c 0.0111,-2.2 0.21589,-2.98225 0.45508,-1.73834 0.23919,1.24391 0.23011,3.04391 -0.0202,4 -0.25029,0.95609 -0.446,-0.0617 -0.4349,-2.26166 z m 11.82677,-2.08333 c 0.048,-1.16495 0.28494,-1.4019 0.60416,-0.60417 0.28887,0.72187 0.25335,1.58438 -0.0789,1.91667 -0.33229,0.33229 -0.56864,-0.25834 -0.52522,-1.3125 z M 282.43125,583.5 c 6.6e-4,-13.2 0.14295,-18.46169 0.31621,-11.69265 0.17326,6.76904 0.17273,17.56904 -0.001,24 -0.17391,6.43096 -0.31567,0.89265 -0.31502,-12.30735 z m 87.6477,-23.08333 c 0.048,-1.16495 0.28494,-1.4019 0.60416,-0.60417 0.28887,0.72187 0.25335,1.58438 -0.0789,1.91667 -0.33229,0.33229 -0.56864,-0.25834 -0.52522,-1.3125 z M 282.45419,521 c 0,-21.175 0.13253,-29.8375 0.2945,-19.25 0.16197,10.5875 0.16197,27.9125 0,38.5 -0.16197,10.5875 -0.2945,1.925 -0.2945,-19.25 z m 342.35831,12.31689 c 0.72187,-0.28887 1.58438,-0.25335 1.91667,0.0789 0.33229,0.33229 -0.25834,0.56864 -1.3125,0.52522 -1.16495,-0.048 -1.4019,-0.28494 -0.60417,-0.60416 z M 509.75,527.33772 c 0.6875,-0.27741 1.8125,-0.27741 2.5,0 0.6875,0.27741 0.125,0.50439 -1.25,0.50439 -1.375,0 -1.9375,-0.22698 -1.25,-0.50439 z M 540.15789,497 c 0,-1.375 0.22698,-1.9375 0.50439,-1.25 0.27741,0.6875 0.27741,1.8125 0,2.5 -0.27741,0.6875 -0.50439,0.125 -0.50439,-1.25 z M 282.46342,433 c 0,-27.225 0.1286,-38.3625 0.28576,-24.75 0.15717,13.6125 0.15717,35.8875 0,49.5 -0.15716,13.6125 -0.28576,2.475 -0.28576,-24.75 z m 228.34908,34.31689 c 0.72187,-0.28887 1.58438,-0.25335 1.91667,0.0789 0.33229,0.33229 -0.25834,0.56864 -1.3125,0.52522 -1.16495,-0.048 -1.4019,-0.28494 -0.60417,-0.60416 z M 294.28601,411.5 c 0.008,-2.75 0.20172,-3.75631 0.43157,-2.23625 0.22986,1.52006 0.22371,3.77006 -0.0136,5 -0.23736,1.22994 -0.42542,-0.0138 -0.41792,-2.76375 z m -0.054,-8.5 c 0,-1.925 0.2058,-2.7125 0.45733,-1.75 0.25152,0.9625 0.25152,2.5375 0,3.5 -0.25153,0.9625 -0.45733,0.175 -0.45733,-1.75 z m 103.5805,-0.68311 c 0.72187,-0.28887 1.58438,-0.25335 1.91667,0.0789 0.33229,0.33229 -0.25834,0.56864 -1.3125,0.52522 -1.16495,-0.048 -1.4019,-0.28494 -0.60417,-0.60416 z M 294.33621,391 c 0,-4.125 0.17651,-5.8125 0.39226,-3.75 0.21574,2.0625 0.21574,5.4375 0,7.5 -0.21575,2.0625 -0.39226,0.375 -0.39226,-3.75 z m 50.17087,3.01145 c -0.35034,-0.56686 0.0511,-0.7345 0.94098,-0.39301 1.73242,0.66479 2.04939,1.38156 0.61096,1.38156 -0.51754,0 -1.21592,-0.44485 -1.55194,-0.98855 z M 534.5,390 c -0.33992,-0.55 -0.16803,-1 0.38197,-1 0.55,0 1.27811,0.45 1.61803,1 0.33992,0.55 0.16803,1 -0.38197,1 -0.55,0 -1.27811,-0.45 -1.61803,-1 z M 517,258.66667 c 0,-0.92647 0.77721,-1.65987 1.75,-1.65136 0.99868,0.009 1.32068,0.33573 0.75,0.76164 -0.55,0.41047 -1.3375,1.15358 -1.75,1.65135 -0.4125,0.49777 -0.75,0.15503 -0.75,-0.76163 z"
         id="path4" />
      <path
         style="fill-opacity:1.0;fill:#494949"
         d="m 582,704.57037 c 0,-0.275 0.9,-0.98167 2,-1.57037 1.1,-0.5887 2,-0.84537 2,-0.57037 0,0.275 -0.9,0.98167 -2,1.57037 -1.1,0.5887 -2,0.84537 -2,0.57037 z M 429,698 c -0.825,-0.53316 -1.05,-0.96937 -0.5,-0.96937 0.55,0 1.675,0.43621 2.5,0.96937 0.825,0.53316 1.05,0.96937 0.5,0.96937 -0.55,0 -1.675,-0.43621 -2.5,-0.96937 z m -26.49292,-14.98855 c -0.35034,-0.56686 0.0511,-0.7345 0.94098,-0.39301 1.73242,0.66479 2.04939,1.38156 0.61096,1.38156 -0.51754,0 -1.21592,-0.44485 -1.55194,-0.98855 z m -18,-10 c -0.35034,-0.56686 0.0511,-0.7345 0.94098,-0.39301 1.73242,0.66479 2.04939,1.38156 0.61096,1.38156 -0.51754,0 -1.21592,-0.44485 -1.55194,-0.98855 z m -56,-31 c -0.35034,-0.56686 0.0511,-0.7345 0.94098,-0.39301 1.73242,0.66479 2.04939,1.38156 0.61096,1.38156 -0.51754,0 -1.21592,-0.44485 -1.55194,-0.98855 z M 716,621 c -0.90129,-0.58246 -1.02463,-0.97549 -0.30902,-0.98469 0.65504,-0.008 1.4691,0.43469 1.80902,0.98469 0.7673,1.24153 0.42112,1.24153 -1.5,0 z m -233.92105,-4.58333 c 0.048,-1.16495 0.28494,-1.4019 0.60416,-0.60417 0.28887,0.72187 0.25335,1.58438 -0.0789,1.91667 -0.33229,0.33229 -0.56864,-0.25834 -0.52522,-1.3125 z M 741.40709,600 c 0,-9.075 0.1516,-12.7875 0.3369,-8.25 0.18529,4.5375 0.18529,11.9625 0,16.5 -0.1853,4.5375 -0.3369,0.825 -0.3369,-8.25 z M 294.46203,562 c 0,-26.125 0.12919,-36.8125 0.28709,-23.75 0.15789,13.0625 0.15789,34.4375 0,47.5 -0.1579,13.0625 -0.28709,2.375 -0.28709,-23.75 z m 342.2713,27.87591 c 0.67834,-0.68342 1.48524,-0.99067 1.79313,-0.68278 0.30789,0.30789 -0.24711,0.86705 -1.23333,1.24258 -1.4252,0.54268 -1.54006,0.42782 -0.5598,-0.5598 z M 603.87244,585.25 c -1.24387,-1.58606 -1.2085,-1.62143 0.37756,-0.37756 0.9625,0.75485 1.75,1.54235 1.75,1.75 0,0.82304 -0.82119,0.29331 -2.12756,-1.37244 z M 421,584.62244 c 0,-0.20765 0.7875,-0.99515 1.75,-1.75 1.58606,-1.24387 1.62143,-1.2085 0.37756,0.37756 C 421.82119,584.91575 421,585.44548 421,584.62244 Z M 741.19495,579.5 c 0.0204,-1.65 0.2445,-2.20394 0.49804,-1.23097 0.25354,0.97297 0.23687,2.32297 -0.0371,3 -0.27393,0.67703 -0.48137,-0.11903 -0.46099,-1.76903 z m 0.24466,-32 c 5e-4,-15.4 0.13932,-21.56027 0.30848,-13.6895 0.16916,7.87078 0.16875,20.47078 -9.2e-4,28 -0.16966,7.52923 -0.30807,1.0895 -0.30756,-14.3105 z M 389.76845,534.83155 c 0.5811,-0.5811 1.64682,-0.85979 2.36826,-0.61931 0.74895,0.24965 0.29565,0.70294 -1.05655,1.05655 -1.66335,0.43497 -2.05378,0.30483 -1.31171,-0.43724 z M 406.44956,498 c 0,-18.975 0.13447,-26.7375 0.29883,-17.25 0.16436,9.4875 0.16436,25.0125 0,34.5 -0.16436,9.4875 -0.29883,1.725 -0.29883,-17.25 z m 118.28377,25.87591 c 0.67834,-0.68342 1.48524,-0.99067 1.79313,-0.68278 0.30789,0.30789 -0.24711,0.86705 -1.23333,1.24258 -1.4252,0.54268 -1.54006,0.42782 -0.5598,-0.5598 z M 741.46533,467 c 0,-28.875 0.12777,-40.6875 0.28394,-26.25 0.15616,14.4375 0.15616,38.0625 0,52.5 -0.15617,14.4375 -0.28394,2.625 -0.28394,-26.25 z m -447.21315,43.5 c 0.0111,-2.2 0.21589,-2.98225 0.45508,-1.73834 0.23919,1.24391 0.23011,3.04391 -0.0202,4 -0.25029,0.95609 -0.446,-0.0617 -0.4349,-2.26166 z m -0.0943,-9.5 c 0,-1.375 0.22698,-1.9375 0.50439,-1.25 0.27741,0.6875 0.27741,1.8125 0,2.5 -0.27741,0.6875 -0.50439,0.125 -0.50439,-1.25 z m 0.27983,-31.5 c -5.4e-4,-14.85 0.13863,-21.0644 0.30926,-13.80979 0.17063,7.25462 0.17107,19.40462 9.7e-4,27 -0.17009,7.59539 -0.3097,1.65979 -0.31023,-13.19021 z M 489,477.62244 c 0,-0.20765 0.7875,-0.99515 1.75,-1.75 1.58606,-1.24387 1.62143,-1.2085 0.37756,0.37756 C 489.82119,477.91575 489,478.44548 489,477.62244 Z m 81,-22.01545 c 0,-0.21616 0.69837,-0.661 1.55194,-0.98855 0.88992,-0.34149 1.29132,-0.17385 0.94098,0.39301 C 571.90566,455.96166 570,456.4169 570,455.60699 Z M 294.19495,439.5 c 0.0204,-1.65 0.2445,-2.20394 0.49804,-1.23097 0.25354,0.97297 0.23687,2.32297 -0.0371,3 -0.27393,0.67703 -0.48137,-0.11903 -0.46099,-1.76903 z M 294.3605,425 c 0,-5.225 0.16854,-7.3625 0.37454,-4.75 0.206,2.6125 0.206,6.8875 0,9.5 -0.206,2.6125 -0.37454,0.475 -0.37454,-4.75 z M 580,416 c -0.90129,-0.58246 -1.02463,-0.97549 -0.30902,-0.98469 0.65504,-0.008 1.4691,0.43469 1.80902,0.98469 0.7673,1.24153 0.42112,1.24153 -1.5,0 z m 161.39739,-16 c 0,-7.975 0.1553,-11.2375 0.34512,-7.25 0.18981,3.9875 0.18981,10.5125 0,14.5 -0.18982,3.9875 -0.34512,0.725 -0.34512,-7.25 z m -324.52495,8.25 c -1.24387,-1.58606 -1.2085,-1.62143 0.37756,-0.37756 1.66575,1.30637 2.19548,2.12756 1.37244,2.12756 -0.20765,0 -0.99515,-0.7875 -1.75,-1.75 z m 218.56869,-2.80517 c -1.86402,-1.49339 -1.85176,-1.51185 0.30887,-0.46481 1.2375,0.59969 2.25,1.29951 2.25,1.55516 0,0.76522 -0.51861,0.54424 -2.55887,-1.09035 z m -50.93405,-1.43338 c -0.35034,-0.56686 0.0511,-0.7345 0.94098,-0.39301 1.73242,0.66479 2.04939,1.38156 0.61096,1.38156 -0.51754,0 -1.21592,-0.44485 -1.55194,-0.98855 z M 400.8125,402.31689 c 0.72187,-0.28887 1.58438,-0.25335 1.91667,0.0789 0.33229,0.33229 -0.25834,0.56864 -1.3125,0.52522 -1.16495,-0.048 -1.4019,-0.28494 -0.60417,-0.60416 z m 224,0 c 0.72187,-0.28887 1.58438,-0.25335 1.91667,0.0789 0.33229,0.33229 -0.25834,0.56864 -1.3125,0.52522 -1.16495,-0.048 -1.4019,-0.28494 -0.60417,-0.60416 z m -124.30542,-4.30544 c -0.35034,-0.56686 0.0511,-0.7345 0.94098,-0.39301 1.73242,0.66479 2.04939,1.38156 0.61096,1.38156 -0.51754,0 -1.21592,-0.44485 -1.55194,-0.98855 z M 466,389.57037 c 0,-0.275 0.9,-0.98167 2,-1.57037 1.1,-0.5887 2,-0.84537 2,-0.57037 0,0.275 -0.9,0.98167 -2,1.57037 -1.1,0.5887 -2,0.84537 -2,0.57037 z M 557,389 c -0.90129,-0.58246 -1.02463,-0.97549 -0.30902,-0.98469 0.65504,-0.008 1.4691,0.43469 1.80902,0.98469 0.7673,1.24153 0.42112,1.24153 -1.5,0 z m -262.92105,-6.58333 c 0.048,-1.16495 0.28494,-1.4019 0.60416,-0.60417 0.28887,0.72187 0.25335,1.58438 -0.0789,1.91667 -0.33229,0.33229 -0.56864,-0.25834 -0.52522,-1.3125 z M 733.13922,363.96673 C 731.84078,362.88503 731.20854,362 731.73423,362 c 0.52569,0 1.77028,0.9 2.76577,2 2.28688,2.52697 1.69506,2.5125 -1.36078,-0.0333 z m -29.63214,-3.95528 c -0.35034,-0.56686 0.0511,-0.7345 0.94098,-0.39301 1.73242,0.66479 2.04939,1.38156 0.61096,1.38156 -0.51754,0 -1.21592,-0.44485 -1.55194,-0.98855 z M 314,349 c 0.825,-0.53316 1.95,-0.96937 2.5,-0.96937 0.55,0 0.325,0.43621 -0.5,0.96937 -0.825,0.53316 -1.95,0.96937 -2.5,0.96937 -0.55,0 -0.325,-0.43621 0.5,-0.96937 z m 8,-4.39301 c 0,-0.21616 0.69837,-0.661 1.55194,-0.98855 0.88992,-0.34149 1.29132,-0.17385 0.94098,0.39301 C 323.90566,344.96166 322,345.4169 322,344.60699 Z M 696,342 c -0.90129,-0.58246 -1.02463,-0.97549 -0.30902,-0.98469 0.65504,-0.008 1.4691,0.43469 1.80902,0.98469 0.7673,1.24153 0.42112,1.24153 -1.5,0 z m -190.80505,-8.5 c 0.0204,-1.65 0.2445,-2.20394 0.49804,-1.23097 0.25354,0.97297 0.23687,2.32297 -0.0371,3 -0.27393,0.67703 -0.48137,-0.11903 -0.46099,-1.76903 z M 638,310 c -0.825,-0.53316 -1.05,-0.96937 -0.5,-0.96937 0.55,0 1.675,0.43621 2.5,0.96937 0.825,0.53316 1.05,0.96937 0.5,0.96937 -0.55,0 -1.675,-0.43621 -2.5,-0.96937 z m -56,-31 c -0.90129,-0.58246 -1.02463,-0.97549 -0.30902,-0.98469 0.65504,-0.008 1.4691,0.43469 1.80902,0.98469 0.7673,1.24153 0.42112,1.24153 -1.5,0 z m -133,-4.39301 c 0,-0.21616 0.69837,-0.661 1.55194,-0.98855 0.88992,-0.34149 1.29132,-0.17385 0.94098,0.39301 C 450.90566,274.96166 449,275.4169 449,274.60699 Z"
         id="path3" />
      <path
         style="fill-opacity:1.0;fill:#333333"
         d="m 526,749.55136 c 0,-0.275 1.35,-1.19811 3,-2.05136 1.65,-0.85325 3,-1.32636 3,-1.05136 0,0.275 -1.35,1.19811 -3,2.05136 -1.65,0.85325 -3,1.32636 -3,1.05136 z m 11,-5.98099 c 0,-0.275 0.9,-0.98167 2,-1.57037 1.1,-0.5887 2,-0.84537 2,-0.57037 0,0.275 -0.9,0.98167 -2,1.57037 -1.1,0.5887 -2,0.84537 -2,0.57037 z M 505.45932,696.5 c 2.3e-4,-24.2 0.13067,-33.95691 0.28986,-21.68203 0.1592,12.27489 0.15901,32.07489 -4.1e-4,44 C 505.58934,730.74309 505.45909,720.7 505.45932,696.5 Z M 546,738.57037 c 0,-0.275 0.9,-0.98167 2,-1.57037 1.1,-0.5887 2,-0.84537 2,-0.57037 0,0.275 -0.9,0.98167 -2,1.57037 -1.1,0.5887 -2,0.84537 -2,0.57037 z m -24,-1 c 0,-0.275 0.9,-0.98167 2,-1.57037 1.1,-0.5887 2,-0.84537 2,-0.57037 0,0.275 -0.9,0.98167 -2,1.57037 -1.1,0.5887 -2,0.84537 -2,0.57037 z M 472,736 c -0.90129,-0.58246 -1.02463,-0.97549 -0.30902,-0.98469 0.65504,-0.008 1.4691,0.43469 1.80902,0.98469 0.7673,1.24153 0.42112,1.24153 -1.5,0 z m 59,-3.42963 c 0,-0.275 0.9,-0.98167 2,-1.57037 1.1,-0.5887 2,-0.84537 2,-0.57037 0,0.275 -0.9,0.98167 -2,1.57037 -1.1,0.5887 -2,0.84537 -2,0.57037 z m -70.55887,-3.12554 c -1.86402,-1.49339 -1.85176,-1.51185 0.30887,-0.46481 1.2375,0.59969 2.25,1.29951 2.25,1.55516 0,0.76522 -0.51861,0.54424 -2.55887,-1.09035 z M 560,730.60699 c 0,-0.21616 0.69837,-0.661 1.55194,-0.98855 0.88992,-0.34149 1.29132,-0.17385 0.94098,0.39301 C 561.90566,730.96166 560,731.4169 560,730.60699 Z m -78.49292,-3.59554 c -0.35034,-0.56686 0.0511,-0.7345 0.94098,-0.39301 1.73242,0.66479 2.04939,1.38156 0.61096,1.38156 -0.51754,0 -1.21592,-0.44485 -1.55194,-0.98855 z M 573,723.57037 c 0,-0.275 0.9,-0.98167 2,-1.57037 1.1,-0.5887 2,-0.84537 2,-0.57037 0,0.275 -0.9,0.98167 -2,1.57037 -1.1,0.5887 -2,0.84537 -2,0.57037 z m 9,-5.01901 c 0,-0.275 1.35,-1.19811 3,-2.05136 1.65,-0.85325 3,-1.32636 3,-1.05136 0,0.275 -1.35,1.19811 -3,2.05136 -1.65,0.85325 -3,1.32636 -3,1.05136 z m -155.55887,-8.10653 c -1.86402,-1.49339 -1.85176,-1.51185 0.30887,-0.46481 1.2375,0.59969 2.25,1.29951 2.25,1.55516 0,0.76522 -0.51861,0.54424 -2.55887,-1.09035 z M 595,711.57037 c 0,-0.275 0.9,-0.98167 2,-1.57037 1.1,-0.5887 2,-0.84537 2,-0.57037 0,0.275 -0.9,0.98167 -2,1.57037 -1.1,0.5887 -2,0.84537 -2,0.57037 z m 9,-5 c 0,-0.275 0.9,-0.98167 2,-1.57037 1.1,-0.5887 2,-0.84537 2,-0.57037 0,0.275 -0.9,0.98167 -2,1.57037 -1.1,0.5887 -2,0.84537 -2,0.57037 z m 11,-6 c 0,-0.275 0.9,-0.98167 2,-1.57037 1.1,-0.5887 2,-0.84537 2,-0.57037 0,0.275 -0.9,0.98167 -2,1.57037 -1.1,0.5887 -2,0.84537 -2,0.57037 z m -24,-1 c 0,-0.275 0.9,-0.98167 2,-1.57037 1.1,-0.5887 2,-0.84537 2,-0.57037 0,0.275 -0.9,0.98167 -2,1.57037 -1.1,0.5887 -2,0.84537 -2,0.57037 z m 31,-3 c 0,-0.275 0.9,-0.98167 2,-1.57037 1.1,-0.5887 2,-0.84537 2,-0.57037 0,0.275 -0.9,0.98167 -2,1.57037 -1.1,0.5887 -2,0.84537 -2,0.57037 z m -23.26667,-1.69446 c 0.67834,-0.68342 1.48524,-0.99067 1.79313,-0.68278 0.30789,0.30789 -0.24711,0.86705 -1.23333,1.24258 -1.4252,0.54268 -1.54006,0.42782 -0.5598,-0.5598 z m 33.35,-4.24046 c 0.22917,-0.2005 1.54167,-0.90032 2.91667,-1.55516 2.35727,-1.12265 2.38918,-1.10183 0.55887,0.36454 -1.593,1.27626 -4.84786,2.39128 -3.47554,1.19062 z m -255.6422,-8.19062 c -1.86402,-1.49339 -1.85176,-1.51185 0.30887,-0.46481 1.2375,0.59969 2.25,1.29951 2.25,1.55516 0,0.76522 -0.51861,0.54424 -2.55887,-1.09035 z M 651,680.57037 c 0,-0.275 0.9,-0.98167 2,-1.57037 1.1,-0.5887 2,-0.84537 2,-0.57037 0,0.275 -0.9,0.98167 -2,1.57037 -1.1,0.5887 -2,0.84537 -2,0.57037 z m -24,-1 c 0,-0.275 0.9,-0.98167 2,-1.57037 1.1,-0.5887 2,-0.84537 2,-0.57037 0,0.275 -0.9,0.98167 -2,1.57037 -1.1,0.5887 -2,0.84537 -2,0.57037 z m 33,-4 c 0,-0.275 0.9,-0.98167 2,-1.57037 1.1,-0.5887 2,-0.84537 2,-0.57037 0,0.275 -0.9,0.98167 -2,1.57037 -1.1,0.5887 -2,0.84537 -2,0.57037 z m -303.55887,-4.12554 c -1.86402,-1.49339 -1.85176,-1.51185 0.30887,-0.46481 1.2375,0.59969 2.25,1.29951 2.25,1.55516 0,0.76522 -0.51861,0.54424 -2.55887,-1.09035 z m -7,-4 c -1.86402,-1.49339 -1.85176,-1.51185 0.30887,-0.46481 1.2375,0.59969 2.25,1.29951 2.25,1.55516 0,0.76522 -0.51861,0.54424 -2.55887,-1.09035 z M 681,663.60699 c 0,-0.21616 0.69837,-0.661 1.55194,-0.98855 0.88992,-0.34149 1.29132,-0.17385 0.94098,0.39301 C 682.90566,663.96166 681,664.4169 681,663.60699 Z m -342.55887,-2.16216 c -1.86402,-1.49339 -1.85176,-1.51185 0.30887,-0.46481 1.2375,0.59969 2.25,1.29951 2.25,1.55516 0,0.76522 -0.51861,0.54424 -2.55887,-1.09035 z M 663,659.57037 c 0,-0.275 0.9,-0.98167 2,-1.57037 1.1,-0.5887 2,-0.84537 2,-0.57037 0,0.275 -0.9,0.98167 -2,1.57037 -1.1,0.5887 -2,0.84537 -2,0.57037 z m 26,0 c 0,-0.275 0.9,-0.98167 2,-1.57037 1.1,-0.5887 2,-0.84537 2,-0.57037 0,0.275 -0.9,0.98167 -2,1.57037 -1.1,0.5887 -2,0.84537 -2,0.57037 z m -359.55887,-3.12554 c -1.86402,-1.49339 -1.85176,-1.51185 0.30887,-0.46481 1.2375,0.59969 2.25,1.29951 2.25,1.55516 0,0.76522 -0.51861,0.54424 -2.55887,-1.09035 z m 365.2922,-0.56892 c 0.67834,-0.68342 1.48524,-0.99067 1.79313,-0.68278 0.30789,0.30789 -0.24711,0.86705 -1.23333,1.24258 -1.4252,0.54268 -1.54006,0.42782 -0.5598,-0.5598 z m -197.2922,-5.43108 c -1.83031,-1.46637 -1.7984,-1.48719 0.55887,-0.36454 3.06103,1.45781 3.62834,1.91971 2.3578,1.91971 -0.53655,0 -1.84905,-0.69982 -2.91667,-1.55517 z M 703,651.55136 c 0,-0.275 1.35,-1.19811 3,-2.05136 1.65,-0.85325 3,-1.32636 3,-1.05136 0,0.275 -1.35,1.19811 -3,2.05136 -1.65,0.85325 -3,1.32636 -3,1.05136 z M 492.87244,647.25 c -1.24387,-1.58606 -1.2085,-1.62143 0.37756,-0.37756 1.66575,1.30637 2.19548,2.12756 1.37244,2.12756 -0.20765,0 -0.99515,-0.7875 -1.75,-1.75 z M 530,647.68709 c 0,-0.1721 1.4625,-1.6346 3.25,-3.25 l 3.25,-2.93709 -2.93709,3.25 C 530.82513,647.77946 530,648.45965 530,647.68709 Z M 487.80709,642.25 C 486.0452,640.1984 484.724,638 485.25292,638 c 0.20403,0 1.36906,1.35 2.58896,3 2.41033,3.26015 2.38777,4.07089 -0.0348,1.25 z m 49.7572,-4.54313 c 0.37553,-0.98622 0.93469,-1.54122 1.24258,-1.23333 0.30789,0.30789 6.4e-4,1.11479 -0.68278,1.79313 -0.98762,0.98026 -1.10248,0.8654 -0.5598,-0.5598 z m -221.12316,-2.26204 c -1.86402,-1.49339 -1.85176,-1.51185 0.30887,-0.46481 1.2375,0.59969 2.25,1.29951 2.25,1.55516 0,0.76522 -0.51861,0.54424 -2.55887,-1.09035 z M 290.87244,634.25 c -1.24387,-1.58606 -1.2085,-1.62143 0.37756,-0.37756 0.9625,0.75485 1.75,1.54235 1.75,1.75 0,0.82304 -0.82119,0.29331 -2.12756,-1.37244 z M 734,632.62244 c 0,-0.20765 0.7875,-0.99515 1.75,-1.75 1.58606,-1.24387 1.62143,-1.2085 0.37756,0.37756 C 734.82119,632.91575 734,633.44548 734,632.62244 Z M 540,617.05902 c 0,-0.51754 0.44485,-1.21592 0.98855,-1.55194 0.56686,-0.35034 0.7345,0.0511 0.39301,0.94098 C 540.71677,618.18048 540,618.49745 540,617.05902 Z m -213,-6.45203 c 0,-0.21616 0.69837,-0.661 1.55194,-0.98855 0.88992,-0.34149 1.29132,-0.17385 0.94098,0.39301 C 328.90566,610.96166 327,611.4169 327,610.60699 Z M 729.48322,497.5 c -3e-5,-62.7 0.11992,-88.49716 0.26658,-57.32702 0.14666,31.17014 0.14669,82.47014 7e-5,114 C 729.60325,585.70284 729.48326,560.2 729.48322,497.5 Z M 556,607.57037 c 0,-0.275 0.9,-0.98167 2,-1.57037 1.1,-0.5887 2,-0.84537 2,-0.57037 0,0.275 -0.9,0.98167 -2,1.57037 -1.1,0.5887 -2,0.84537 -2,0.57037 z m -95.55887,-4.12554 c -1.86402,-1.49339 -1.85176,-1.51185 0.30887,-0.46481 1.2375,0.59969 2.25,1.29951 2.25,1.55516 0,0.76522 -0.51861,0.54424 -2.55887,-1.09035 z M 491,602.62244 c 0,-0.20765 0.7875,-0.99515 1.75,-1.75 1.58606,-1.24387 1.62143,-1.2085 0.37756,0.37756 C 491.82119,602.91575 491,603.44548 491,602.62244 Z m 186.44113,-3.17761 c -1.86402,-1.49339 -1.85176,-1.51185 0.30887,-0.46481 1.2375,0.59969 2.25,1.29951 2.25,1.55516 0,0.76522 -0.51861,0.54424 -2.55887,-1.09035 z M 349,598.57037 c 0,-0.275 0.9,-0.98167 2,-1.57037 1.1,-0.5887 2,-0.84537 2,-0.57037 0,0.275 -0.9,0.98167 -2,1.57037 -1.1,0.5887 -2,0.84537 -2,0.57037 z m 320.75,-3.14234 c -3.73844,-2.02814 -3.51088,-2.87286 0.25,-0.92803 1.65,0.85325 3,1.7648 3,2.02568 0,0.6435 -0.10745,0.60721 -3.25,-1.09765 z M 356,594.57037 c 0,-0.275 0.9,-0.98167 2,-1.57037 1.1,-0.5887 2,-0.84537 2,-0.57037 0,0.275 -0.9,0.98167 -2,1.57037 -1.1,0.5887 -2,0.84537 -2,0.57037 z m 86.44113,-1.12554 c -1.86402,-1.49339 -1.85176,-1.51185 0.30887,-0.46481 1.2375,0.59969 2.25,1.29951 2.25,1.55516 0,0.76522 -0.51861,0.54424 -2.55887,-1.09035 z M 579,594.57037 c 0,-0.275 0.9,-0.98167 2,-1.57037 1.1,-0.5887 2,-0.84537 2,-0.57037 0,0.275 -0.9,0.98167 -2,1.57037 -1.1,0.5887 -2,0.84537 -2,0.57037 z m 41.8125,-1.25348 c 0.72187,-0.28887 1.58438,-0.25335 1.91667,0.0789 0.33229,0.33229 -0.25834,0.56864 -1.3125,0.52522 -1.16495,-0.048 -1.4019,-0.28494 -0.60417,-0.60416 z m 3.9375,0.0208 c 0.6875,-0.27741 1.8125,-0.27741 2.5,0 0.6875,0.27741 0.125,0.50439 -1.25,0.50439 -1.375,0 -1.9375,-0.22698 -1.25,-0.50439 z M 363,590.57037 c 0,-0.275 0.9,-0.98167 2,-1.57037 1.1,-0.5887 2,-0.84537 2,-0.57037 0,0.275 -0.9,0.98167 -2,1.57037 -1.1,0.5887 -2,0.84537 -2,0.57037 z m 278,-2.88328 c 0,-0.1721 1.4625,-1.6346 3.25,-3.25 l 3.25,-2.93709 -2.93709,3.25 C 641.82513,587.77946 641,588.45965 641,587.68709 Z m -211.49292,-1.67564 c -0.35034,-0.56686 0.0511,-0.7345 0.94098,-0.39301 1.73242,0.66479 2.04939,1.38156 0.61096,1.38156 -0.51754,0 -1.21592,-0.44485 -1.55194,-0.98855 z M 568,586.57037 c 0,-0.275 0.9,-0.98167 2,-1.57037 1.1,-0.5887 2,-0.84537 2,-0.57037 0,0.275 -0.9,0.98167 -2,1.57037 -1.1,0.5887 -2,0.84537 -2,0.57037 z m 25,-0.019 c 0,-0.275 1.35,-1.19811 3,-2.05136 1.65,-0.85325 3,-1.32636 3,-1.05136 0,0.275 -1.35,1.19811 -3,2.05136 -1.65,0.85325 -3,1.32636 -3,1.05136 z M 652.232,563 c 0,-1.925 0.2058,-2.7125 0.45733,-1.75 0.25152,0.9625 0.25152,2.5375 0,3.5 -0.25153,0.9625 -0.45733,0.175 -0.45733,-1.75 z M 373,550.05902 c 0,-0.51754 0.44485,-1.21592 0.98855,-1.55194 0.56686,-0.35034 0.7345,0.0511 0.39301,0.94098 C 373.71677,551.18048 373,551.49745 373,550.05902 Z m 223,0 c 0,-0.51754 0.44485,-1.21592 0.98855,-1.55194 0.56686,-0.35034 0.7345,0.0511 0.39301,0.94098 C 596.71677,551.18048 596,551.49745 596,550.05902 Z m -174.43604,-6.84181 c -3.52537,-4.22504 -3.59464,-4.40421 -0.66394,-1.71721 2.77646,2.54559 5.81996,6.5747 4.88516,6.46721 -0.15685,-0.018 -2.0564,-2.15554 -4.22122,-4.75 z M 378.5,542 c 0.99549,-1.1 2.03498,-2 2.30998,-2 0.275,0 -0.31449,0.9 -1.30998,2 -0.99549,1.1 -2.03498,2 -2.30998,2 -0.275,0 0.31449,-0.9 1.30998,-2 z M 602,541.5 c 1.29175,-1.375 2.57363,-2.5 2.84863,-2.5 0.275,0 -0.55688,1.125 -1.84863,2.5 -1.29175,1.375 -2.57363,2.5 -2.84863,2.5 -0.275,0 0.55688,-1.125 1.84863,-2.5 z m 38.5,-1.16952 c -2.2,-1.97244 -3.1,-3.12003 -2,-2.55019 1.85345,0.96015 7.37648,6.27149 6.42431,6.17808 -0.23337,-0.0229 -2.22431,-1.65544 -4.42431,-3.62789 z m -25.6875,-6.01359 c 0.72187,-0.28887 1.58438,-0.25335 1.91667,0.0789 0.33229,0.33229 -0.25834,0.56864 -1.3125,0.52522 -1.16495,-0.048 -1.4019,-0.28494 -0.60417,-0.60416 z m 5,-1 c 0.72187,-0.28887 1.58438,-0.25335 1.91667,0.0789 0.33229,0.33229 -0.25834,0.56864 -1.3125,0.52522 -1.16495,-0.048 -1.4019,-0.28494 -0.60417,-0.60416 z M 492.2176,520.25 c -2.39185,-2.3375 -2.43172,-2.45224 -0.26577,-0.76498 4.26786,3.32465 4.47167,3.51498 3.76395,3.51498 -0.37633,0 -1.9505,-1.2375 -3.49818,-2.75 z M 532,518.5 c 1.29175,-1.375 2.57363,-2.5 2.84863,-2.5 0.275,0 -0.55688,1.125 -1.84863,2.5 -1.29175,1.375 -2.57363,2.5 -2.84863,2.5 -0.275,0 0.55688,-1.125 1.84863,-2.5 z m -44.72186,-3.75 c -1.49918,-1.93844 -2.44224,-3.75 -1.95217,-3.75 0.24421,0 1.18114,1.125 2.08207,2.5 1.68584,2.57291 1.59195,3.47635 -0.1299,1.25 z m 54.80519,-29.11455 c 0.22917,-0.2005 1.54167,-0.90032 2.91667,-1.55516 2.35727,-1.12265 2.38918,-1.10183 0.55887,0.36454 -1.593,1.27626 -4.84786,2.39128 -3.47554,1.19062 z M 486,480.62244 c 0,-0.20765 0.7875,-0.99515 1.75,-1.75 1.58606,-1.24387 1.62143,-1.2085 0.37756,0.37756 C 486.82119,480.91575 486,481.44548 486,480.62244 Z m 75,-5.05207 c 0,-0.275 0.9,-0.98167 2,-1.57037 1.1,-0.5887 2,-0.84537 2,-0.57037 0,0.275 -0.9,0.98167 -2,1.57037 -1.1,0.5887 -2,0.84537 -2,0.57037 z m -69,-0.94793 c 0,-0.20765 0.7875,-0.99515 1.75,-1.75 1.58606,-1.24387 1.62143,-1.2085 0.37756,0.37756 C 492.82119,474.91575 492,475.44548 492,474.62244 Z m 74.73333,-2.74653 c 0.67834,-0.68342 1.48524,-0.99067 1.79313,-0.68278 0.30789,0.30789 -0.24711,0.86705 -1.23333,1.24258 -1.4252,0.54268 -1.54006,0.42782 -0.5598,-0.5598 z m -160.65438,-9.45924 c 0.048,-1.16495 0.28494,-1.4019 0.60416,-0.60417 0.28887,0.72187 0.25335,1.58438 -0.0789,1.91667 -0.33229,0.33229 -0.56864,-0.25834 -0.52522,-1.3125 z M 617.75,461.33772 c 0.6875,-0.27741 1.8125,-0.27741 2.5,0 0.6875,0.27741 0.125,0.50439 -1.25,0.50439 -1.375,0 -1.9375,-0.22698 -1.25,-0.50439 z m 19.33333,-2.62069 c 0.22917,-0.15563 1.31667,-0.94313 2.41667,-1.75 1.85001,-1.35701 1.89707,-1.33579 0.62756,0.28297 -0.75485,0.9625 -1.84235,1.75 -2.41667,1.75 -0.57432,0 -0.85672,-0.12734 -0.62756,-0.28297 z M 644,453.5 c 1.29175,-1.375 2.57363,-2.5 2.84863,-2.5 0.275,0 -0.55688,1.125 -1.84863,2.5 -1.29175,1.375 -2.57363,2.5 -2.84863,2.5 -0.275,0 0.55688,-1.125 1.84863,-2.5 z m -265.12756,-0.25 c -1.24387,-1.58606 -1.2085,-1.62143 0.37756,-0.37756 0.9625,0.75485 1.75,1.54235 1.75,1.75 0,0.82304 -0.82119,0.29331 -2.12756,-1.37244 z M 592,443.62244 c 0,-0.20765 0.7875,-0.99515 1.75,-1.75 1.58606,-1.24387 1.62143,-1.2085 0.37756,0.37756 C 592.82119,443.91575 592,444.44548 592,443.62244 Z M 652.15789,436 c 0,-1.375 0.22698,-1.9375 0.50439,-1.25 0.27741,0.6875 0.27741,1.8125 0,2.5 -0.27741,0.6875 -0.50439,0.125 -0.50439,-1.25 z m 0.0371,-6.5 c 0.0204,-1.65 0.2445,-2.20394 0.49804,-1.23097 0.25354,0.97297 0.23687,2.32297 -0.0371,3 -0.27393,0.67703 -0.48137,-0.11903 -0.46099,-1.76903 z M 654,422.57037 c 0,-0.275 0.9,-0.98167 2,-1.57037 1.1,-0.5887 2,-0.84537 2,-0.57037 0,0.275 -0.9,0.98167 -2,1.57037 -1.1,0.5887 -2,0.84537 -2,0.57037 z m 9.73333,-5.69446 c 0.67834,-0.68342 1.48524,-0.99067 1.79313,-0.68278 0.30789,0.30789 -0.24711,0.86705 -1.23333,1.24258 -1.4252,0.54268 -1.54006,0.42782 -0.5598,-0.5598 z M 669,414.57037 c 0,-0.275 0.9,-0.98167 2,-1.57037 1.1,-0.5887 2,-0.84537 2,-0.57037 0,0.275 -0.9,0.98167 -2,1.57037 -1.1,0.5887 -2,0.84537 -2,0.57037 z M 420.40499,410.75 418.5,408.5 l 2.25,1.90499 c 1.2375,1.04774 2.25,2.06024 2.25,2.25 0,0.80025 -0.80479,0.20945 -2.59501,-1.90499 z m 223,0 -1.90499,-2.25 2.25,1.90499 c 1.2375,1.04774 2.25,2.06024 2.25,2.25 0,0.80025 -0.80479,0.20945 -2.59501,-1.90499 z M 347.75,410.42803 c -3.73844,-2.02814 -3.51088,-2.87286 0.25,-0.92803 1.65,0.85325 3,1.7648 3,2.02568 0,0.6435 -0.10745,0.60721 -3.25,-1.09765 z m 223.75708,0.58342 c -0.35034,-0.56686 0.0511,-0.7345 0.94098,-0.39301 1.73242,0.66479 2.04939,1.38156 0.61096,1.38156 -0.51754,0 -1.21592,-0.44485 -1.55194,-0.98855 z M 604.5,409 c 0.99549,-1.1 2.03498,-2 2.30998,-2 0.275,0 -0.31449,0.9 -1.30998,2 -0.99549,1.1 -2.03498,2 -2.30998,2 -0.275,0 0.31449,-0.9 1.30998,-2 z m -41.05887,-2.55517 c -1.86402,-1.49339 -1.85176,-1.51185 0.30887,-0.46481 1.2375,0.59969 2.25,1.29951 2.25,1.55516 0,0.76522 -0.51861,0.54424 -2.55887,-1.09035 z M 683,406.55136 c 0,-0.275 1.35,-1.19811 3,-2.05136 1.65,-0.85325 3,-1.32636 3,-1.05136 0,0.275 -1.35,1.19811 -3,2.05136 -1.65,0.85325 -3,1.32636 -3,1.05136 z m -128.55887,-5.10653 c -1.86402,-1.49339 -1.85176,-1.51185 0.30887,-0.46481 1.2375,0.59969 2.25,1.29951 2.25,1.55516 0,0.76522 -0.51861,0.54424 -2.55887,-1.09035 z M 475,398.57037 c 0,-0.275 0.9,-0.98167 2,-1.57037 1.1,-0.5887 2,-0.84537 2,-0.57037 0,0.275 -0.9,0.98167 -2,1.57037 -1.1,0.5887 -2,0.84537 -2,0.57037 z m 226,-2 c 0,-0.275 0.9,-0.98167 2,-1.57037 1.1,-0.5887 2,-0.84537 2,-0.57037 0,0.275 -0.9,0.98167 -2,1.57037 -1.1,0.5887 -2,0.84537 -2,0.57037 z m -244,-2 c 0,-0.275 0.9,-0.98167 2,-1.57037 1.1,-0.5887 2,-0.84537 2,-0.57037 0,0.275 -0.9,0.98167 -2,1.57037 -1.1,0.5887 -2,0.84537 -2,0.57037 z M 492.87244,393.25 c -1.24387,-1.58606 -1.2085,-1.62143 0.37756,-0.37756 1.66575,1.30637 2.19548,2.12756 1.37244,2.12756 -0.20765,0 -0.99515,-0.7875 -1.75,-1.75 z M 530.5,393 c 0.99549,-1.1 2.03498,-2 2.30998,-2 0.275,0 -0.31449,0.9 -1.30998,2 -0.99549,1.1 -2.03498,2 -2.30998,2 -0.275,0 0.31449,-0.9 1.30998,-2 z M 684,391.57037 c 0,-0.275 0.9,-0.98167 2,-1.57037 1.1,-0.5887 2,-0.84537 2,-0.57037 0,0.275 -0.9,0.98167 -2,1.57037 -1.1,0.5887 -2,0.84537 -2,0.57037 z m -351.55887,-4.12554 c -1.86402,-1.49339 -1.85176,-1.51185 0.30887,-0.46481 1.2375,0.59969 2.25,1.29951 2.25,1.55516 0,0.76522 -0.51861,0.54424 -2.55887,-1.09035 z M 715,388.57037 c 0,-0.275 0.9,-0.98167 2,-1.57037 1.1,-0.5887 2,-0.84537 2,-0.57037 0,0.275 -0.9,0.98167 -2,1.57037 -1.1,0.5887 -2,0.84537 -2,0.57037 z M 741.232,383 c 0,-1.925 0.2058,-2.7125 0.45733,-1.75 0.25152,0.9625 0.25152,2.5375 0,3.5 -0.25153,0.9625 -0.45733,0.175 -0.45733,-1.75 z m -459,-2 c 0,-1.925 0.2058,-2.7125 0.45733,-1.75 0.25152,0.9625 0.25152,2.5375 0,3.5 -0.25153,0.9625 -0.45733,0.175 -0.45733,-1.75 z m 200.92589,-3 c 0,-1.375 0.22698,-1.9375 0.50439,-1.25 0.27741,0.6875 0.27741,1.8125 0,2.5 -0.27741,0.6875 -0.50439,0.125 -0.50439,-1.25 z m 256.92106,-2.58333 c 0.048,-1.16495 0.28494,-1.4019 0.60416,-0.60417 0.28887,0.72187 0.25335,1.58438 -0.0789,1.91667 -0.33229,0.33229 -0.56864,-0.25834 -0.52522,-1.3125 z M 482.232,369 c 0,-1.925 0.2058,-2.7125 0.45733,-1.75 0.25152,0.9625 0.25152,2.5375 0,3.5 -0.25153,0.9625 -0.45733,0.175 -0.45733,-1.75 z M 288.5,365 c 0.99549,-1.1 2.03498,-2 2.30998,-2 0.275,0 -0.31449,0.9 -1.30998,2 -0.99549,1.1 -2.03498,2 -2.30998,2 -0.275,0 0.31449,-0.9 1.30998,-2 z m 20.5,1.57037 c 0,-0.275 0.9,-0.98167 2,-1.57037 1.1,-0.5887 2,-0.84537 2,-0.57037 0,0.275 -0.9,0.98167 -2,1.57037 -1.1,0.5887 -2,0.84537 -2,0.57037 z m 7,-4 c 0,-0.275 0.9,-0.98167 2,-1.57037 1.1,-0.5887 2,-0.84537 2,-0.57037 0,0.275 -0.9,0.98167 -2,1.57037 -1.1,0.5887 -2,0.84537 -2,0.57037 z m 409.50708,-4.55892 c -0.35034,-0.56686 0.0511,-0.7345 0.94098,-0.39301 1.73242,0.66479 2.04939,1.38156 0.61096,1.38156 -0.51754,0 -1.21592,-0.44485 -1.55194,-0.98855 z M 303,355.55136 c 0,-0.275 1.35,-1.19811 3,-2.05136 1.65,-0.85325 3,-1.32636 3,-1.05136 0,0.275 -1.35,1.19811 -3,2.05136 -1.65,0.85325 -3,1.32636 -3,1.05136 z m 25.08333,0.0841 c 0.22917,-0.2005 1.54167,-0.90032 2.91667,-1.55516 2.35727,-1.12265 2.38918,-1.10183 0.55887,0.36454 -1.593,1.27626 -4.84786,2.39128 -3.47554,1.19062 z M 531.94617,350.25 528.5,346.5 l 3.75,3.44617 c 3.49042,3.20761 4.20979,4.05383 3.44617,4.05383 -0.16711,0 -1.85461,-1.6875 -3.75,-3.75 z M 334,352.55136 c 0,-0.275 1.35,-1.19811 3,-2.05136 1.65,-0.85325 3,-1.32636 3,-1.05136 0,0.275 -1.35,1.19811 -3,2.05136 -1.65,0.85325 -3,1.32636 -3,1.05136 z M 491,349.5 c 1.86578,-1.925 3.61733,-3.5 3.89233,-3.5 0.275,0 -1.02655,1.575 -2.89233,3.5 -1.86578,1.925 -3.61733,3.5 -3.89233,3.5 -0.275,0 1.02655,-1.575 2.89233,-3.5 z m -146,-2.94864 c 0,-0.275 1.35,-1.19811 3,-2.05136 1.65,-0.85325 3,-1.32636 3,-1.05136 0,0.275 -1.35,1.19811 -3,2.05136 -1.65,0.85325 -3,1.32636 -3,1.05136 z m 151.73333,-1.67545 c 0.67834,-0.68342 1.48524,-0.99067 1.79313,-0.68278 0.30789,0.30789 -0.24711,0.86705 -1.23333,1.24258 -1.4252,0.54268 -1.54006,0.42782 -0.5598,-0.5598 z m 178.7078,-0.43108 c -1.86402,-1.49339 -1.85176,-1.51185 0.30887,-0.46481 1.2375,0.59969 2.25,1.29951 2.25,1.55516 0,0.76522 -0.51861,0.54424 -2.55887,-1.09035 z M 505.15789,338 c 0,-1.375 0.22698,-1.9375 0.50439,-1.25 0.27741,0.6875 0.27741,1.8125 0,2.5 -0.27741,0.6875 -0.50439,0.125 -0.50439,-1.25 z m 180.34919,-1.98855 c -0.35034,-0.56686 0.0511,-0.7345 0.94098,-0.39301 1.73242,0.66479 2.04939,1.38156 0.61096,1.38156 -0.51754,0 -1.21592,-0.44485 -1.55194,-0.98855 z M 649.75,330.42803 c -3.73844,-2.02814 -3.51088,-2.87286 0.25,-0.92803 1.65,0.85325 3,1.7648 3,2.02568 0,0.6435 -0.10745,0.60721 -3.25,-1.09765 z M 376,329.57037 c 0,-0.275 0.9,-0.98167 2,-1.57037 1.1,-0.5887 2,-0.84537 2,-0.57037 0,0.275 -0.9,0.98167 -2,1.57037 -1.1,0.5887 -2,0.84537 -2,0.57037 z M 505.43007,305 c 0,-12.925 0.14251,-18.2125 0.3167,-11.75 0.17418,6.4625 0.17418,17.0375 0,23.5 -0.17419,6.4625 -0.3167,1.175 -0.3167,-11.75 z m 123.01106,13.44483 c -1.86402,-1.49339 -1.85176,-1.51185 0.30887,-0.46481 1.2375,0.59969 2.25,1.29951 2.25,1.55516 0,0.76522 -0.51861,0.54424 -2.55887,-1.09035 z M 372,317.57037 c 0,-0.275 0.9,-0.98167 2,-1.57037 1.1,-0.5887 2,-0.84537 2,-0.57037 0,0.275 -0.9,0.98167 -2,1.57037 -1.1,0.5887 -2,0.84537 -2,0.57037 z m 31,-3.01901 c 0,-0.275 1.35,-1.19811 3,-2.05136 1.65,-0.85325 3,-1.32636 3,-1.05136 0,0.275 -1.35,1.19811 -3,2.05136 -1.65,0.85325 -3,1.32636 -3,1.05136 z m -16,-4.98099 c 0,-0.275 0.9,-0.98167 2,-1.57037 1.1,-0.5887 2,-0.84537 2,-0.57037 0,0.275 -0.9,0.98167 -2,1.57037 -1.1,0.5887 -2,0.84537 -2,0.57037 z m 7,-4 c 0,-0.275 0.9,-0.98167 2,-1.57037 1.1,-0.5887 2,-0.84537 2,-0.57037 0,0.275 -0.9,0.98167 -2,1.57037 -1.1,0.5887 -2,0.84537 -2,0.57037 z m 25,-0.019 c 0,-0.275 1.35,-1.19811 3,-2.05136 1.65,-0.85325 3,-1.32636 3,-1.05136 0,0.275 -1.35,1.19811 -3,2.05136 -1.65,0.85325 -3,1.32636 -3,1.05136 z M 604,305 c -0.90129,-0.58246 -1.02463,-0.97549 -0.30902,-0.98469 0.65504,-0.008 1.4691,0.43469 1.80902,0.98469 0.7673,1.24153 0.42112,1.24153 -1.5,0 z m -195.26667,-8.12409 c 0.67834,-0.68342 1.48524,-0.99067 1.79313,-0.68278 0.30789,0.30789 -0.24711,0.86705 -1.23333,1.24258 -1.4252,0.54268 -1.54006,0.42782 -0.5598,-0.5598 z m 40,-8 c 0.67834,-0.68342 1.48524,-0.99067 1.79313,-0.68278 0.30789,0.30789 -0.24711,0.86705 -1.23333,1.24258 -1.4252,0.54268 -1.54006,0.42782 -0.5598,-0.5598 z m 125.7078,-0.43108 c -1.86402,-1.49339 -1.85176,-1.51185 0.30887,-0.46481 1.2375,0.59969 2.25,1.29951 2.25,1.55516 0,0.76522 -0.51861,0.54424 -2.55887,-1.09035 z M 426,287.55136 c 0,-0.275 1.35,-1.19811 3,-2.05136 1.65,-0.85325 3,-1.32636 3,-1.05136 0,0.275 -1.35,1.19811 -3,2.05136 -1.65,0.85325 -3,1.32636 -3,1.05136 z m 29,-2 c 0,-0.275 1.35,-1.19811 3,-2.05136 1.65,-0.85325 3,-1.32636 3,-1.05136 0,0.275 -1.35,1.19811 -3,2.05136 -1.65,0.85325 -3,1.32636 -3,1.05136 z m 109.75,-2.12333 c -3.73844,-2.02814 -3.51088,-2.87286 0.25,-0.92803 1.65,0.85325 3,1.7648 3,2.02568 0,0.6435 -0.10745,0.60721 -3.25,-1.09765 z m 25.69113,0.0168 c -1.86402,-1.49339 -1.85176,-1.51185 0.30887,-0.46481 1.2375,0.59969 2.25,1.29951 2.25,1.55516 0,0.76522 -0.51861,0.54424 -2.55887,-1.09035 z M 462,281.57037 c 0,-0.275 0.9,-0.98167 2,-1.57037 1.1,-0.5887 2,-0.84537 2,-0.57037 0,0.275 -0.9,0.98167 -2,1.57037 -1.1,0.5887 -2,0.84537 -2,0.57037 z M 505.38176,268.5 c 0.002,-6.6 0.16382,-9.16987 0.35965,-5.71081 0.19583,3.45905 0.19422,8.85905 -0.004,12 -0.19781,3.14094 -0.35803,0.31081 -0.35606,-6.28919 z m 49.05937,8.94483 c -1.86402,-1.49339 -1.85176,-1.51185 0.30887,-0.46481 1.2375,0.59969 2.25,1.29951 2.25,1.55516 0,0.76522 -0.51861,0.54424 -2.55887,-1.09035 z M 489,266.55136 c 0,-0.275 1.35,-1.19811 3,-2.05136 1.65,-0.85325 3,-1.32636 3,-1.05136 0,0.275 -1.35,1.19811 -3,2.05136 -1.65,0.85325 -3,1.32636 -3,1.05136 z m -23,-1 c 0,-0.275 1.35,-1.19811 3,-2.05136 1.65,-0.85325 3,-1.32636 3,-1.05136 0,0.275 -1.35,1.19811 -3,2.05136 -1.65,0.85325 -3,1.32636 -3,1.05136 z m 43.26375,-21.26894 c 1.52006,-0.22986 3.77006,-0.22371 5,0.0136 1.22994,0.23736 -0.0137,0.42542 -2.76375,0.41792 -2.75,-0.008 -3.75631,-0.20172 -2.23625,-0.43157 z"
         id="path2" />
    </g>
  </g>
</svg>
