<?xml version="1.0" standalone="no"?>
<!DOCTYPE svg PUBLIC "-//W3C//DTD SVG 20010904//EN"
 "http://www.w3.org/TR/2001/REC-SVG-20010904/DTD/svg10.dtd">
<svg version="1.0" xmlns="http://www.w3.org/2000/svg"
 width="1024.000000pt" height="1024.000000pt" viewBox="0 0 1024.000000 1024.000000"
 preserveAspectRatio="xMidYMid meet">

<g transform="translate(0.000000,1024.000000) scale(0.100000,-0.100000)"
fill="#000000" stroke="none">
<path d="M5098 7793 c17 -2 47 -2 65 0 17 2 3 4 -33 4 -36 0 -50 -2 -32 -4z"/>
<path d="M5000 7775 c-32 -18 -25 -18 25 0 22 8 31 14 20 14 -11 0 -31 -6 -45
-14z"/>
<path d="M5210 7783 c8 -3 32 -14 53 -25 20 -10 37 -16 37 -13 0 7 -78 45 -92
44 -9 0 -8 -2 2 -6z"/>
<path d="M4938 7744 c-38 -20 -36 -28 2 -9 17 9 30 18 30 20 0 7 -1 6 -32 -11z"/>
<path d="M5310 7735 c0 -2 18 -14 40 -25 22 -11 40 -18 40 -15 0 2 -18 14 -40
25 -22 11 -40 18 -40 15z"/>
<path d="M4823 7680 c-40 -23 -73 -43 -73 -46 0 -5 129 64 145 78 17 15 0 8
-72 -32z"/>
<path d="M5400 7685 c0 -2 18 -14 40 -25 22 -11 40 -18 40 -15 0 2 -18 14 -40
25 -22 11 -40 18 -40 15z"/>
<path d="M5034 7658 c-4 -7 -3 -8 4 -4 9 5 12 -98 12 -412 l0 -419 -42 -12
c-42 -13 -158 -116 -158 -141 0 -7 18 11 39 38 43 55 92 89 140 98 l31 7 0
428 c0 401 -3 454 -26 417z"/>
<path d="M5172 7633 c1 -37 1 -37 5 -5 2 17 7 32 10 32 3 0 44 -21 91 -47 48
-25 83 -41 77 -35 -14 15 -158 92 -172 92 -9 0 -12 -13 -11 -37z"/>
<path d="M4994 7634 c-18 -14 -18 -15 4 -4 12 6 22 13 22 15 0 8 -5 6 -26 -11z"/>
<path d="M5495 7633 c6 -6 46 -30 90 -53 44 -24 76 -39 70 -33 -5 6 -46 29
-90 53 -44 24 -75 38 -70 33z"/>
<path d="M4525 7514 c-116 -64 -309 -171 -430 -238 -121 -68 -275 -153 -342
-190 -68 -37 -123 -70 -123 -73 0 -2 29 11 64 31 35 19 108 60 162 89 55 30
223 122 374 206 151 84 328 182 393 218 100 56 127 73 114 73 -1 0 -97 -52
-212 -116z"/>
<path d="M4917 7594 c-27 -14 -47 -27 -44 -30 4 -5 97 45 97 52 0 6 0 6 -53
-22z"/>
<path d="M5370 7567 c0 -3 46 -31 103 -63 56 -31 138 -78 182 -102 44 -25 184
-102 310 -172 337 -185 701 -387 940 -520 226 -126 295 -163 295 -156 0 2 -39
26 -87 52 -49 26 -117 64 -153 84 -36 21 -258 145 -495 275 -332 184 -1038
574 -1087 602 -5 2 -8 2 -8 0z"/>
<path d="M4760 7507 c-83 -46 -592 -331 -675 -377 -110 -61 -648 -359 -923
-509 -72 -40 -135 -78 -139 -84 -3 -6 16 2 43 18 49 28 325 181 524 289 58 32
119 66 135 76 17 9 62 34 100 55 39 21 243 135 455 253 212 118 410 228 440
244 93 52 140 80 140 84 0 6 0 6 -100 -49z"/>
<path d="M5675 7532 c6 -5 51 -31 100 -58 50 -26 86 -43 80 -37 -5 5 -50 32
-100 58 -49 26 -85 43 -80 37z"/>
<path d="M5870 7426 c0 -2 114 -67 253 -144 330 -183 414 -227 402 -215 -8 8
-242 139 -602 336 -29 16 -53 26 -53 23z"/>
<path d="M6545 7053 c6 -5 51 -32 100 -58 50 -26 86 -43 80 -37 -5 5 -50 31
-100 58 -49 26 -85 43 -80 37z"/>
<path d="M3480 6937 c-74 -41 -157 -86 -185 -101 -27 -16 -79 -44 -115 -64
-142 -78 -256 -145 -274 -161 -23 -19 -76 -101 -76 -115 0 -6 14 12 30 41 17
30 48 64 72 81 41 28 385 221 591 331 82 44 109 62 95 61 -2 0 -64 -33 -138
-73z"/>
<path d="M6745 6943 c6 -6 42 -27 80 -48 39 -21 66 -34 60 -28 -5 6 -41 27
-80 48 -38 21 -65 34 -60 28z"/>
<path d="M6900 6856 c0 -2 37 -24 83 -49 249 -135 303 -167 349 -213 28 -27
46 -40 40 -28 -6 11 -30 36 -54 56 -53 43 -418 247 -418 234z"/>
<path d="M5170 6820 c0 -5 5 -10 11 -10 5 0 7 5 4 10 -3 6 -8 10 -11 10 -2 0
-4 -4 -4 -10z"/>
<path d="M5240 6789 c55 -25 105 -71 133 -124 17 -32 22 -59 23 -129 l1 -90
74 -41 c41 -22 109 -60 152 -84 42 -23 77 -40 77 -37 0 2 -66 41 -147 86
l-148 82 0 87 c0 69 -5 94 -22 126 -35 66 -132 146 -175 145 -7 0 7 -10 32
-21z"/>
<path d="M4836 6635 c-3 -9 -6 -22 -5 -28 0 -7 5 -1 10 12 5 13 8 26 5 28 -2
2 -6 -3 -10 -12z"/>
<path d="M4823 6550 c0 -25 2 -35 4 -22 2 12 2 32 0 45 -2 12 -4 2 -4 -23z"/>
<path d="M7207 6536 c-4 -10 -1 -13 8 -9 8 3 12 9 9 14 -7 12 -11 11 -17 -5z"/>
<path d="M7380 6540 c0 -3 7 -23 16 -45 l15 -40 -6 35 c-3 19 -10 39 -15 44
-6 6 -10 8 -10 6z"/>
<path d="M3045 6520 c4 -6 39 -27 78 -46 40 -20 68 -32 62 -27 -17 17 -147 84
-140 73z"/>
<path d="M7158 6504 c-38 -20 -36 -28 2 -9 17 9 30 18 30 20 0 7 -1 6 -32 -11z"/>
<path d="M4831 6470 c-1 -22 -31 -42 -242 -160 -133 -74 -249 -141 -258 -148
-9 -8 9 0 39 16 116 62 455 254 463 262 5 4 7 18 4 31 -4 24 -4 24 -6 -1z"/>
<path d="M2825 5250 l0 -1235 22 -40 c40 -75 76 -101 318 -230 50 -26 86 -43
80 -38 -5 6 -75 46 -154 88 -160 87 -202 119 -234 179 l-22 41 -5 1235 -5
1235 0 -1235z"/>
<path d="M7068 6454 c-27 -13 -48 -27 -48 -29 0 -3 23 6 50 20 28 14 50 28 50
30 0 7 1 7 -52 -21z"/>
<path d="M7412 5259 c-2 -1317 0 -1261 -64 -1335 -17 -19 -49 -45 -72 -58 -22
-13 -135 -76 -251 -141 -115 -64 -248 -138 -295 -164 -47 -27 -165 -92 -262
-145 -98 -54 -178 -100 -178 -102 0 -6 34 9 81 37 58 34 135 77 269 149 58 32
177 98 265 147 88 50 214 120 280 157 69 39 138 85 162 110 78 81 73 1 70
1346 l-2 1195 -3 -1196z"/>
<path d="M2942 5263 l3 -1178 2 1173 3 1174 33 -20 c17 -11 97 -56 177 -100
494 -273 545 -303 552 -325 7 -21 7 -21 5 3 -2 21 -32 41 -212 142 -115 65
-257 143 -315 174 -58 31 -135 74 -172 95 -36 22 -69 39 -72 39 -3 0 -5 -530
-4 -1177z"/>
<path d="M3205 6433 c6 -6 51 -32 100 -58 50 -26 86 -43 80 -38 -5 6 -50 32
-100 58 -49 26 -85 43 -80 38z"/>
<path d="M6895 6217 l-380 -213 3 -65 c2 -36 -1 -83 -7 -105 -17 -62 -66 -132
-118 -164 -26 -17 -43 -30 -37 -30 32 0 110 74 142 135 22 42 27 64 28 139 l2
88 128 70 c71 39 200 111 287 160 173 98 338 188 344 188 1 0 3 -520 3 -1155
0 -635 -2 -1155 -4 -1155 -4 0 -55 28 -393 218 -270 151 -324 180 -308 165 6
-6 118 -70 250 -143 132 -73 265 -147 295 -165 30 -18 81 -47 113 -64 l57 -32
0 1170 c0 931 -3 1171 -12 1170 -7 0 -184 -96 -393 -212z"/>
<path d="M6958 6394 c-38 -20 -36 -28 2 -9 17 9 30 18 30 20 0 7 -1 6 -32 -11z"/>
<path d="M6686 6244 l-227 -126 -22 20 c-27 25 -88 62 -102 62 -5 0 10 -12 35
-26 25 -14 55 -35 67 -46 l22 -20 223 123 c206 113 250 139 237 139 -2 0 -107
-57 -233 -126z"/>
<path d="M5321 6326 c-36 -38 -113 -74 -182 -85 l-64 -10 61 3 c66 4 131 31
177 74 l27 26 39 -20 c22 -10 156 -84 299 -164 184 -103 262 -151 265 -165 4
-19 4 -19 6 1 1 18 -38 43 -236 154 -131 73 -267 150 -302 172 -34 21 -64 38
-65 38 -2 0 -13 -11 -25 -24z"/>
<path d="M4922 6311 c33 -28 89 -61 105 -61 4 0 -15 13 -42 29 -28 16 -57 36
-64 45 -7 9 -18 16 -23 16 -5 0 6 -13 24 -29z"/>
<path d="M3400 6325 c0 -2 23 -16 50 -30 28 -14 50 -23 50 -20 0 2 -22 16 -50
30 -27 14 -50 23 -50 20z"/>
<path d="M4645 6199 c-127 -72 -258 -145 -292 -162 -58 -29 -63 -34 -62 -62 2
-27 2 -27 6 -5 3 20 19 34 66 60 34 18 91 50 127 70 36 21 138 79 228 130 139
78 173 100 159 100 -1 0 -106 -59 -232 -131z"/>
<path d="M3510 6266 c0 -3 9 -10 20 -16 11 -6 20 -8 20 -6 0 3 -9 10 -20 16
-11 6 -20 8 -20 6z"/>
<path d="M5730 6267 c0 -3 51 -33 113 -67 61 -35 124 -70 139 -78 25 -15 28
-14 69 22 24 20 64 43 89 51 25 7 37 14 27 14 -29 1 -81 -24 -120 -59 l-37
-32 -87 47 c-49 26 -112 61 -140 77 -29 17 -53 28 -53 25z"/>
<path d="M5048 6243 c7 -3 16 -2 19 1 4 3 -2 6 -13 5 -11 0 -14 -3 -6 -6z"/>
<path d="M3570 6229 c26 -17 90 -50 90 -45 0 5 -90 56 -99 56 -3 0 1 -5 9 -11z"/>
<path d="M3983 6213 c15 -2 37 -2 50 0 12 2 0 4 -28 4 -27 0 -38 -2 -22 -4z"/>
<path d="M6213 6213 c15 -2 37 -2 50 0 12 2 0 4 -28 4 -27 0 -38 -2 -22 -4z"/>
<path d="M3900 6200 c-18 -12 -2 -12 25 0 13 6 15 9 5 9 -8 0 -22 -4 -30 -9z"/>
<path d="M4068 6203 c7 -3 16 -2 19 1 4 3 -2 6 -13 5 -11 0 -14 -3 -6 -6z"/>
<path d="M6298 6203 c7 -3 16 -2 19 1 4 3 -2 6 -13 5 -11 0 -14 -3 -6 -6z"/>
<path d="M4131 6180 c19 -10 50 -32 68 -49 l33 -31 39 20 c21 11 39 23 39 25
0 3 -18 -4 -39 -15 -36 -18 -40 -18 -53 -3 -16 21 -98 73 -112 73 -6 -1 5 -9
25 -20z"/>
<path d="M3848 6174 c-38 -20 -36 -28 2 -9 17 9 30 18 30 20 0 7 -1 6 -32 -11z"/>
<path d="M3690 6166 c0 -3 14 -12 30 -21 17 -9 30 -13 30 -11 0 3 -13 12 -30
21 -16 9 -30 13 -30 11z"/>
<path d="M3790 6135 c-7 -8 -17 -12 -23 -8 -6 3 -7 1 -3 -5 5 -9 12 -8 26 1
11 6 20 15 20 19 0 12 -6 10 -20 -7z"/>
<path d="M3702 5915 c0 -16 4 -43 8 -60 11 -42 11 -1 1 50 -7 34 -9 35 -9 10z"/>
<path d="M5932 5910 c0 -14 2 -19 5 -12 2 6 2 18 0 25 -3 6 -5 1 -5 -13z"/>
<path d="M4292 5890 c0 -19 2 -27 5 -17 2 9 2 25 0 35 -3 9 -5 1 -5 -18z"/>
<path d="M4281 5829 c-1 -9 -18 -43 -40 -76 -39 -60 -78 -90 -144 -112 l-37
-13 0 -368 0 -368 28 -5 c35 -7 42 0 8 9 l-26 6 0 359 0 359 28 11 c54 19 94
45 123 77 36 40 72 109 65 125 -2 7 -5 5 -5 -4z"/>
<path d="M5867 5780 c-99 -60 -113 -74 -22 -24 102 57 110 62 105 66 -3 3 -40
-17 -83 -42z"/>
<path d="M3720 5814 c0 -6 7 -19 16 -30 14 -18 14 -18 3 6 -14 31 -19 36 -19
24z"/>
<path d="M3758 5743 c24 -44 142 -126 159 -110 2 3 -12 10 -32 17 -20 6 -59
35 -87 63 -28 28 -46 41 -40 30z"/>
<path d="M6000 5716 c-14 -12 -502 -292 -577 -330 -23 -11 -33 -23 -32 -39 l0
-22 9 21 c5 12 43 41 87 65 43 23 179 101 303 171 136 78 229 126 236 121 48
-35 93 -62 114 -67 14 -4 3 4 -23 18 -27 13 -61 36 -76 50 -23 22 -29 24 -41
12z"/>
<path d="M5550 5599 c-167 -93 -218 -118 -230 -110 -53 37 -101 62 -131 66
-26 5 -23 2 16 -12 28 -10 67 -32 89 -48 38 -29 38 -29 70 -11 17 10 112 63
211 119 167 93 206 117 194 117 -2 0 -101 -54 -219 -121z"/>
<path d="M6240 5630 l-75 -6 70 -1 c39 -1 79 2 90 7 11 5 13 8 5 7 -8 0 -49
-3 -90 -7z"/>
<path d="M3945 5275 c0 -198 1 -280 2 -183 2 97 2 259 0 360 -1 101 -2 21 -2
-177z"/>
<path d="M5098 5563 c12 -2 30 -2 40 0 9 3 -1 5 -23 4 -22 0 -30 -2 -17 -4z"/>
<path d="M5010 5550 c-11 -8 -7 -9 15 -4 37 8 45 14 19 14 -10 0 -26 -5 -34
-10z"/>
<path d="M4939 5515 c-19 -14 -42 -36 -52 -48 -24 -29 -67 -118 -67 -137 0 -8
11 11 25 44 26 64 50 94 109 137 21 16 35 29 29 29 -5 0 -25 -11 -44 -25z"/>
<path d="M5402 5259 c-2 -51 -9 -80 -33 -127 -46 -93 -119 -143 -237 -162
l-57 -9 59 4 c161 11 283 146 273 302 l-3 58 -2 -66z"/>
<path d="M4812 5275 c0 -16 2 -22 5 -12 2 9 2 23 0 30 -3 6 -5 -1 -5 -18z"/>
<path d="M4821 5204 c0 -11 3 -14 6 -6 3 7 2 16 -1 19 -3 4 -6 -2 -5 -13z"/>
<path d="M4865 5105 c10 -16 29 -43 43 -58 29 -30 120 -77 149 -77 10 1 -2 8
-27 17 -53 18 -96 47 -130 87 -14 16 -31 37 -39 45 -7 9 -5 3 4 -14z"/>
<path d="M3911 4898 c-50 -14 -118 -63 -152 -111 -30 -41 -60 -124 -58 -161 0
-12 7 6 15 38 27 112 114 209 199 223 19 3 35 10 35 14 0 5 -1 9 -2 8 -2 0
-18 -5 -37 -11z"/>
<path d="M6133 4891 c-28 -9 -68 -30 -88 -45 -39 -30 -95 -110 -95 -135 0 -9
10 4 22 28 45 92 125 145 241 160 57 8 58 9 17 9 -25 1 -68 -7 -97 -17z"/>
<path d="M6329 4882 c57 -22 133 -91 160 -144 12 -24 21 -36 21 -27 0 55 -155
192 -214 188 -6 0 9 -8 33 -17z"/>
<path d="M4167 4851 c47 -34 86 -81 107 -131 8 -19 15 -28 16 -19 1 38 -120
179 -153 179 -6 0 8 -13 30 -29z"/>
<path d="M5941 4674 c0 -11 3 -14 6 -6 3 7 2 16 -1 19 -3 4 -6 -2 -5 -13z"/>
<path d="M6516 4608 c0 -79 1 -81 30 -95 27 -13 27 -13 10 1 -11 9 -23 16 -27
16 -4 0 -5 26 -2 58 3 31 1 67 -4 79 -5 14 -8 -5 -7 -59z"/>
<path d="M4290 4623 c0 -32 -3 -67 -5 -78 -4 -15 3 -25 27 -39 259 -146 570
-317 573 -314 2 2 -107 65 -243 141 -136 75 -269 150 -297 166 l-50 28 4 77
c1 42 0 76 -3 76 -3 0 -6 -26 -6 -57z"/>
<path d="M5931 4604 c0 -11 3 -14 6 -6 3 7 2 16 -1 19 -3 4 -6 -2 -5 -13z"/>
<path d="M3711 4554 c-1 -26 -9 -35 -51 -58 -27 -15 -50 -29 -50 -32 0 -10
102 50 107 62 3 7 3 23 0 36 -3 18 -5 17 -6 -8z"/>
<path d="M5887 4496 c-73 -42 -87 -56 -22 -23 46 23 97 57 85 56 -3 0 -31 -15
-63 -33z"/>
<path d="M3390 4345 c-210 -117 -262 -148 -200 -119 51 24 410 225 410 230 0
7 1 7 -210 -111z"/>
<path d="M5615 4344 c-104 -58 -207 -117 -229 -131 l-38 -25 -32 31 c-34 33
-110 71 -141 70 -11 0 -1 -6 23 -14 48 -15 85 -36 123 -72 l26 -24 64 39 c35
21 139 80 232 131 142 78 180 102 165 101 -2 0 -88 -48 -193 -106z"/>
<path d="M3639 4344 c-74 -42 -147 -84 -164 -93 -183 -102 -255 -144 -255
-148 0 -6 111 55 360 196 l195 110 30 -28 c50 -49 109 -73 183 -77 l67 -3 -66
9 c-73 9 -131 34 -182 80 l-34 29 -134 -75z"/>
<path d="M4218 4407 c-7 -7 -33 -27 -57 -45 -25 -17 -41 -32 -35 -32 5 0 33
18 61 40 l53 40 127 -74 c108 -62 385 -217 418 -234 7 -3 7 -2 0 5 -10 11
-541 313 -549 313 -3 0 -11 -6 -18 -13z"/>
<path d="M5952 4393 c-24 -14 -41 -27 -39 -29 2 -3 23 6 47 20 l43 24 49 -39
c62 -48 142 -73 213 -66 60 6 139 43 174 81 14 14 28 26 32 26 4 0 56 -27 115
-61 353 -200 626 -350 630 -346 2 2 -90 55 -204 119 -114 63 -280 156 -370
207 -90 50 -166 91 -169 91 -3 0 -21 -13 -39 -30 -115 -100 -269 -105 -376
-10 -26 22 -50 40 -55 39 -4 -1 -27 -12 -51 -26z"/>
<path d="M5651 4222 l-244 -137 -2 -80 c-1 -91 -22 -147 -76 -211 l-33 -39 32
30 c56 50 86 126 87 218 l2 79 74 40 c229 124 425 239 407 238 -2 0 -113 -62
-247 -138z"/>
<path d="M4075 4320 c-13 -6 -15 -9 -5 -9 8 0 22 4 30 9 18 12 2 12 -25 0z"/>
<path d="M5098 4293 c12 -2 30 -2 40 0 9 3 -1 5 -23 4 -22 0 -30 -2 -17 -4z"/>
<path d="M5038 4283 c7 -3 16 -2 19 1 4 3 -2 6 -13 5 -11 0 -14 -3 -6 -6z"/>
<path d="M4978 4264 c-39 -21 -35 -28 5 -8 37 19 44 24 31 24 -5 -1 -21 -8
-36 -16z"/>
<path d="M4914 4218 l-19 -23 23 19 c21 18 27 26 19 26 -2 0 -12 -10 -23 -22z"/>
<path d="M3088 4176 c-78 -44 -88 -58 -13 -17 55 30 86 51 75 51 -3 0 -31 -15
-62 -34z"/>
<path d="M2980 4115 c-14 -8 -20 -14 -14 -15 5 0 19 7 30 15 24 18 16 19 -16
0z"/>
<path d="M3102 4043 c-57 -30 -101 -57 -99 -60 5 -4 184 92 202 108 16 16 2 9
-103 -48z"/>
<path d="M4808 4088 c5 -7 12 -24 15 -38 4 -22 4 -21 6 6 1 21 -5 34 -15 38
-13 5 -14 3 -6 -6z"/>
<path d="M7230 3979 c0 -5 5 -7 10 -4 6 3 10 8 10 11 0 2 -4 4 -10 4 -5 0 -10
-5 -10 -11z"/>
<path d="M7168 3944 c-27 -13 -48 -27 -48 -29 0 -3 23 6 50 20 28 14 50 28 50
30 0 7 1 7 -52 -21z"/>
<path d="M3045 3953 c6 -6 51 -32 100 -59 50 -26 86 -43 80 -37 -5 6 -50 32
-100 58 -49 26 -85 43 -80 38z"/>
<path d="M4821 3945 c-1 -35 39 -108 82 -153 42 -43 94 -78 104 -69 2 3 -5 8
-17 12 -55 17 -131 109 -156 188 -7 23 -13 33 -13 22z"/>
<path d="M6895 3794 c-115 -64 -264 -145 -330 -181 -196 -107 -385 -215 -385
-220 0 -3 24 8 53 25 28 16 234 129 457 252 361 199 435 241 420 240 -3 -1
-99 -53 -215 -116z"/>
<path d="M3240 3845 c0 -2 27 -18 60 -35 33 -17 60 -28 60 -25 0 2 -27 18 -60
35 -33 17 -60 28 -60 25z"/>
<path d="M3370 3777 c0 -5 172 -102 248 -141 64 -33 30 -7 -45 34 -43 24 -106
58 -140 77 -35 19 -63 32 -63 30z"/>
<path d="M5228 3732 l-58 -27 0 -432 c0 -270 4 -433 10 -433 9 0 237 126 270
150 29 20 -66 -28 -164 -84 -54 -31 -100 -56 -102 -56 -2 0 -4 191 -4 424 l0
425 55 25 c30 14 55 27 55 30 0 4 -1 6 -2 5 -2 -1 -29 -13 -60 -27z"/>
<path d="M5050 3283 l-5 -432 -120 66 c-66 36 -235 130 -375 208 -973 543
-890 498 -890 491 0 -4 100 -61 620 -351 529 -296 771 -427 775 -423 3 3 4
200 3 439 l-3 434 -5 -432z"/>
<path d="M3260 3694 c0 -2 19 -13 43 -24 41 -20 41 -20 17 -1 -23 19 -60 34
-60 25z"/>
<path d="M3350 3646 c0 -2 28 -20 63 -39 34 -19 148 -82 252 -139 159 -88 391
-218 545 -305 99 -56 194 -105 185 -96 -5 6 -50 33 -100 61 -49 27 -264 147
-477 265 -406 227 -468 260 -468 253z"/>
<path d="M6127 3371 c-45 -29 -45 -35 1 -12 23 12 42 24 42 26 0 9 -14 4 -43
-14z"/>
<path d="M6005 3302 c-218 -118 -521 -286 -530 -295 -14 -13 2 -5 315 166 245
133 305 168 290 167 -3 0 -36 -18 -75 -38z"/>
<path d="M5930 3119 c-190 -105 -419 -232 -510 -282 -91 -50 -181 -96 -200
-103 -19 -7 -27 -13 -17 -14 23 0 70 24 392 203 149 82 295 163 325 180 289
158 376 208 358 207 -2 0 -158 -86 -348 -191z"/>
<path d="M4410 3057 c0 -3 91 -56 203 -118 111 -62 228 -128 260 -147 32 -19
60 -32 63 -30 3 4 -244 145 -518 295 -5 2 -8 2 -8 0z"/>
<path d="M4970 2745 c14 -8 30 -14 35 -14 6 0 -1 6 -15 14 -14 8 -29 14 -35
14 -5 0 1 -6 15 -14z"/>
<path d="M5035 2720 c11 -5 29 -8 40 -8 16 0 15 2 -5 8 -34 11 -60 11 -35 0z"/>
<path d="M5158 2713 c7 -3 16 -2 19 1 4 3 -2 6 -13 5 -11 0 -14 -3 -6 -6z"/>
</g>
</svg>
